<?xml version="1.0" encoding="utf-8" standalone="no"?>
<!DOCTYPE svg PUBLIC "-//W3C//DTD SVG 1.1//EN"
  "http://www.w3.org/Graphics/SVG/1.1/DTD/svg11.dtd">
<svg xmlns:xlink="http://www.w3.org/1999/xlink" width="1137.6pt" height="856.8pt" viewBox="0 0 1137.6 856.8" xmlns="http://www.w3.org/2000/svg" version="1.1">
 <metadata>
  <rdf:RDF xmlns:dc="http://purl.org/dc/elements/1.1/" xmlns:cc="http://creativecommons.org/ns#" xmlns:rdf="http://www.w3.org/1999/02/22-rdf-syntax-ns#">
   <cc:Work>
    <dc:type rdf:resource="http://purl.org/dc/dcmitype/StillImage"/>
    <dc:date>2026-01-04T10:19:14.803282</dc:date>
    <dc:format>image/svg+xml</dc:format>
    <dc:creator>
     <cc:Agent>
      <dc:title>Matplotlib v3.10.7, https://matplotlib.org/</dc:title>
     </cc:Agent>
    </dc:creator>
   </cc:Work>
  </rdf:RDF>
 </metadata>
 <defs>
  <style type="text/css">*{stroke-linejoin: round; stroke-linecap: butt}</style>
 </defs>
 <g id="figure_1">
  <g id="patch_1">
   <path d="M 0 856.8 
L 1137.6 856.8 
L 1137.6 0 
L 0 0 
z
" style="fill: #ffffff"/>
  </g>
  <g id="axes_1">
   <g id="patch_2">
    <path d="M 73.89 782.91 
L 853.11 782.91 
Q 888.21 782.91 888.21 747.81 
L 888.21 179.19 
Q 888.21 144.09 853.11 144.09 
L 73.89 144.09 
Q 38.79 144.09 38.79 179.19 
L 38.79 747.81 
Q 38.79 782.91 73.89 782.91 
z
" clip-path="url(#pbaeccbce1a)" style="fill: #e8f4f8; opacity: 0.9; stroke: #2980b9; stroke-width: 4; stroke-linejoin: miter"/>
   </g>
   <g id="patch_3">
    <path d="M 116.01 747.81 
L 803.97 747.81 
Q 832.05 747.81 832.05 719.73 
L 832.05 221.31 
Q 832.05 193.23 803.97 193.23 
L 116.01 193.23 
Q 87.93 193.23 87.93 221.31 
L 87.93 719.73 
Q 87.93 747.81 116.01 747.81 
z
" clip-path="url(#pbaeccbce1a)" style="fill: #fef9e7; opacity: 0.9; stroke: #f39c12; stroke-width: 3.5; stroke-linejoin: miter"/>
   </g>
   <g id="patch_4">
    <path d="M 158.13 712.71 
L 768.87 712.71 
Q 789.93 712.71 789.93 691.65 
L 789.93 270.45 
Q 789.93 249.39 768.87 249.39 
L 158.13 249.39 
Q 137.07 249.39 137.07 270.45 
L 137.07 691.65 
Q 137.07 712.71 158.13 712.71 
z
" clip-path="url(#pbaeccbce1a)" style="fill: #fdebd0; opacity: 0.9; stroke: #e74c3c; stroke-width: 3; stroke-linejoin: miter"/>
   </g>
   <g id="patch_5">
    <path d="M 194.634 676.206 
L 556.866 676.206 
Q 570.906 676.206 570.906 662.166 
L 570.906 320.994 
Q 570.906 306.954 556.866 306.954 
L 194.634 306.954 
Q 180.594 306.954 180.594 320.994 
L 180.594 662.166 
Q 180.594 676.206 194.634 676.206 
z
" clip-path="url(#pbaeccbce1a)" style="fill: #d5f5e3; opacity: 0.95; stroke: #27ae60; stroke-width: 2.5; stroke-linejoin: miter"/>
   </g>
   <g id="patch_6">
    <path d="M 226.926 640.404 
L 524.574 640.404 
Q 535.104 640.404 535.104 629.874 
L 535.104 563.886 
Q 535.104 553.356 524.574 553.356 
L 226.926 553.356 
Q 216.396 553.356 216.396 563.886 
L 216.396 629.874 
Q 216.396 640.404 226.926 640.404 
z
" clip-path="url(#pbaeccbce1a)" style="fill: #f5eef8; opacity: 0.9; stroke: #8e44ad; stroke-width: 2; stroke-linejoin: miter"/>
   </g>
   <g id="patch_7">
    <path d="M 226.926 535.104 
L 524.574 535.104 
Q 535.104 535.104 535.104 524.574 
L 535.104 388.386 
Q 535.104 377.856 524.574 377.856 
L 226.926 377.856 
Q 216.396 377.856 216.396 388.386 
L 216.396 524.574 
Q 216.396 535.104 226.926 535.104 
z
" clip-path="url(#pbaeccbce1a)" style="fill: #d6eaf8; opacity: 0.9; stroke: #3498db; stroke-width: 2; stroke-linejoin: miter"/>
   </g>
   <g id="patch_8">
    <path d="M 252.9 502.11 
C 259.41604 502.11 265.666077 499.52115 270.273614 494.913614 
C 274.88115 490.306077 277.47 484.05604 277.47 477.54 
C 277.47 471.02396 274.88115 464.773923 270.273614 460.166386 
C 265.666077 455.55885 259.41604 452.97 252.9 452.97 
C 246.38396 452.97 240.133923 455.55885 235.526386 460.166386 
C 230.91885 464.773923 228.33 471.02396 228.33 477.54 
C 228.33 484.05604 230.91885 490.306077 235.526386 494.913614 
C 240.133923 499.52115 246.38396 502.11 252.9 502.11 
z
" clip-path="url(#pbaeccbce1a)" style="fill: #58d68d; stroke: #2c3e50; stroke-width: 1.5; stroke-linejoin: miter"/>
   </g>
   <g id="patch_9">
    <path d="M 323.1 502.11 
C 329.61604 502.11 335.866077 499.52115 340.473614 494.913614 
C 345.08115 490.306077 347.67 484.05604 347.67 477.54 
C 347.67 471.02396 345.08115 464.773923 340.473614 460.166386 
C 335.866077 455.55885 329.61604 452.97 323.1 452.97 
C 316.58396 452.97 310.333923 455.55885 305.726386 460.166386 
C 301.11885 464.773923 298.53 471.02396 298.53 477.54 
C 298.53 484.05604 301.11885 490.306077 305.726386 494.913614 
C 310.333923 499.52115 316.58396 502.11 323.1 502.11 
z
" clip-path="url(#pbaeccbce1a)" style="fill: #f1948a; stroke: #2c3e50; stroke-width: 1.5; stroke-linejoin: miter"/>
   </g>
   <g id="patch_10">
    <path d="M 393.3 502.11 
C 399.81604 502.11 406.066077 499.52115 410.673614 494.913614 
C 415.28115 490.306077 417.87 484.05604 417.87 477.54 
C 417.87 471.02396 415.28115 464.773923 410.673614 460.166386 
C 406.066077 455.55885 399.81604 452.97 393.3 452.97 
C 386.78396 452.97 380.533923 455.55885 375.926386 460.166386 
C 371.31885 464.773923 368.73 471.02396 368.73 477.54 
C 368.73 484.05604 371.31885 490.306077 375.926386 494.913614 
C 380.533923 499.52115 386.78396 502.11 393.3 502.11 
z
" clip-path="url(#pbaeccbce1a)" style="fill: #85c1e9; stroke: #2c3e50; stroke-width: 1.5; stroke-linejoin: miter"/>
   </g>
   <g id="patch_11">
    <path d="M 463.5 502.11 
C 470.01604 502.11 476.266077 499.52115 480.873614 494.913614 
C 485.48115 490.306077 488.07 484.05604 488.07 477.54 
C 488.07 471.02396 485.48115 464.773923 480.873614 460.166386 
C 476.266077 455.55885 470.01604 452.97 463.5 452.97 
C 456.98396 452.97 450.733923 455.55885 446.126386 460.166386 
C 441.51885 464.773923 438.93 471.02396 438.93 477.54 
C 438.93 484.05604 441.51885 490.306077 446.126386 494.913614 
C 450.733923 499.52115 456.98396 502.11 463.5 502.11 
z
" clip-path="url(#pbaeccbce1a)" style="fill: #f7dc6f; stroke: #2c3e50; stroke-width: 1.5; stroke-linejoin: miter"/>
   </g>
   <g id="patch_12">
    <path d="M 613.026 605.304 
L 756.234 605.304 
Q 766.764 605.304 766.764 594.774 
L 766.764 402.426 
Q 766.764 391.896 756.234 391.896 
L 613.026 391.896 
Q 602.496 391.896 602.496 402.426 
L 602.496 594.774 
Q 602.496 605.304 613.026 605.304 
z
" clip-path="url(#pbaeccbce1a)" style="fill: #fcf3cf; opacity: 0.9; stroke: #d4ac0d; stroke-width: 2; stroke-linejoin: miter"/>
   </g>
   <g id="patch_13">
    <path d="M 932.436 605.304 
L 1082.664 605.304 
Q 1096.704 605.304 1096.704 591.264 
L 1096.704 335.736 
Q 1096.704 321.696 1082.664 321.696 
L 932.436 321.696 
Q 918.396 321.696 918.396 335.736 
L 918.396 591.264 
Q 918.396 605.304 932.436 605.304 
z
" clip-path="url(#pbaeccbce1a)" style="fill: #fadbd8; opacity: 0.9; stroke: #c0392b; stroke-width: 2.5; stroke-linejoin: miter"/>
   </g>
   <g id="patch_14">
    <path d="M 954.9 414.36 
L 975.96 393.3 
L 1039.14 393.3 
L 1060.2 414.36 
L 1039.14 435.42 
L 975.96 435.42 
z
" clip-path="url(#pbaeccbce1a)" style="fill: #f1948a; stroke: #922b21; stroke-width: 2; stroke-linejoin: miter"/>
   </g>
   <g id="patch_15">
    <path d="M 954.9 519.66 
L 975.96 498.6 
L 1039.14 498.6 
L 1060.2 519.66 
L 1039.14 540.72 
L 975.96 540.72 
z
" clip-path="url(#pbaeccbce1a)" style="fill: #abebc6; stroke: #1e8449; stroke-width: 2; stroke-linejoin: miter"/>
   </g>
   <g id="patch_16">
    <path d="M 945.89128 414.036629 
Q 603.015681 313.716637 284.712544 474.135565 
L 285.500141 475.698316 
Q 282.379079 476.151444 279.249501 476.628184 
Q 281.468715 474.370629 283.699918 472.126314 
L 284.487516 473.689065 
Q 602.966785 313.181369 946.031686 413.556748 
L 945.89128 414.036629 
z
" clip-path="url(#pbaeccbce1a)" style="fill: #e74c3c; stroke: #e74c3c; stroke-width: 2; stroke-linecap: round"/>
   </g>
   <g id="patch_17">
    <path d="M 349.500627 476.692391 
Q 653.307435 379.939517 940.777788 515.98445 
L 941.526376 514.402642 
Q 943.811159 516.590253 946.082877 518.792989 
Q 942.944013 518.392513 939.815317 518.018203 
L 940.563906 516.436395 
Q 653.271537 380.475693 349.652353 477.168814 
L 349.500627 476.692391 
z
" clip-path="url(#pbaeccbce1a)" style="fill: #27ae60; stroke: #27ae60; stroke-width: 2; stroke-linecap: round"/>
   </g>
   <g id="patch_18">
    <path d="M 47.916 843.984 
L 1089.684 843.984 
Q 1096.704 843.984 1096.704 836.964 
L 1096.704 792.036 
Q 1096.704 785.016 1089.684 785.016 
L 47.916 785.016 
Q 40.896 785.016 40.896 792.036 
L 40.896 836.964 
Q 40.896 843.984 47.916 843.984 
z
" clip-path="url(#pbaeccbce1a)" style="fill: #f8f9fa; opacity: 0.9; stroke: #6c757d; stroke-width: 1.5; stroke-linejoin: miter"/>
   </g>
   <g id="text_1">
    <!-- vNPU Architecture -->
    <g style="fill: #2c3e50" transform="translate(456.945 48.54) scale(0.24 -0.24)">
     <defs>
      <path id="NotoSans-Bold-76" d="M 1331 0 
L 0 3494 
L 998 3494 
L 1670 1504 
Q 1728 1325 1763 1133 
Q 1798 941 1805 787 
L 1830 787 
Q 1850 1133 1971 1504 
L 2643 3494 
L 3642 3494 
L 2310 0 
L 1331 0 
z
" transform="scale(0.015625)"/>
      <path id="NotoSans-Bold-4e" d="M 4627 0 
L 3398 0 
L 1408 3456 
L 1382 3456 
Q 1395 3130 1411 2803 
Q 1427 2477 1440 2150 
L 1440 0 
L 576 0 
L 576 4570 
L 1798 4570 
L 3782 1146 
L 3802 1146 
Q 3795 1466 3782 1779 
Q 3770 2093 3757 2406 
L 3757 4570 
L 4627 4570 
L 4627 0 
z
" transform="scale(0.015625)"/>
      <path id="NotoSans-Bold-50" d="M 2035 4570 
Q 2918 4570 3324 4189 
Q 3731 3808 3731 3142 
Q 3731 2746 3564 2397 
Q 3398 2048 3011 1837 
Q 2624 1626 1958 1626 
L 1542 1626 
L 1542 0 
L 576 0 
L 576 4570 
L 2035 4570 
z
M 1984 3776 
L 1542 3776 
L 1542 2419 
L 1862 2419 
Q 2272 2419 2512 2582 
Q 2752 2746 2752 3110 
Q 2752 3776 1984 3776 
z
" transform="scale(0.015625)"/>
      <path id="NotoSans-Bold-55" d="M 4294 1613 
Q 4294 1139 4086 758 
Q 3878 378 3459 157 
Q 3040 -64 2400 -64 
Q 1491 -64 1017 400 
Q 544 864 544 1626 
L 544 4570 
L 1510 4570 
L 1510 1773 
Q 1510 1210 1740 979 
Q 1971 749 2426 749 
Q 2899 749 3113 998 
Q 3328 1248 3328 1779 
L 3328 4570 
L 4294 4570 
L 4294 1613 
z
" transform="scale(0.015625)"/>
      <path id="NotoSans-Bold-20" transform="scale(0.015625)"/>
      <path id="NotoSans-Bold-41" d="M 3373 0 
L 3040 1088 
L 1376 1088 
L 1043 0 
L 0 0 
L 1613 4589 
L 2797 4589 
L 4416 0 
L 3373 0 
z
M 2477 2963 
Q 2445 3072 2393 3238 
Q 2342 3405 2291 3577 
Q 2240 3750 2208 3878 
Q 2176 3750 2121 3561 
Q 2067 3373 2019 3203 
Q 1971 3034 1946 2963 
L 1619 1901 
L 2810 1901 
L 2477 2963 
z
" transform="scale(0.015625)"/>
      <path id="NotoSans-Bold-72" d="M 2451 3558 
Q 2522 3558 2618 3552 
Q 2714 3546 2771 3533 
L 2701 2637 
Q 2656 2650 2569 2659 
Q 2483 2669 2419 2669 
Q 2176 2669 1952 2582 
Q 1728 2496 1590 2304 
Q 1453 2112 1453 1779 
L 1453 0 
L 499 0 
L 499 3494 
L 1222 3494 
L 1363 2906 
L 1408 2906 
Q 1562 3174 1830 3366 
Q 2099 3558 2451 3558 
z
" transform="scale(0.015625)"/>
      <path id="NotoSans-Bold-63" d="M 1920 -64 
Q 1139 -64 713 368 
Q 288 800 288 1728 
Q 288 2368 505 2771 
Q 723 3174 1110 3366 
Q 1498 3558 2003 3558 
Q 2362 3558 2627 3488 
Q 2893 3418 3091 3322 
L 2810 2586 
Q 2586 2675 2390 2732 
Q 2195 2790 2003 2790 
Q 1261 2790 1261 1734 
Q 1261 1210 1456 960 
Q 1651 710 2003 710 
Q 2304 710 2534 790 
Q 2765 870 2982 1011 
L 2982 198 
Q 2765 58 2525 -3 
Q 2285 -64 1920 -64 
z
" transform="scale(0.015625)"/>
      <path id="NotoSans-Bold-68" d="M 1453 3872 
Q 1453 3616 1437 3379 
Q 1421 3142 1408 3046 
L 1459 3046 
Q 1626 3315 1888 3436 
Q 2150 3558 2470 3558 
Q 3040 3558 3382 3254 
Q 3725 2950 3725 2278 
L 3725 0 
L 2771 0 
L 2771 2042 
Q 2771 2797 2208 2797 
Q 1779 2797 1616 2499 
Q 1453 2202 1453 1645 
L 1453 0 
L 499 0 
L 499 4864 
L 1453 4864 
L 1453 3872 
z
" transform="scale(0.015625)"/>
      <path id="NotoSans-Bold-69" d="M 979 4864 
Q 1190 4864 1344 4765 
Q 1498 4666 1498 4397 
Q 1498 4134 1344 4032 
Q 1190 3930 979 3930 
Q 762 3930 611 4032 
Q 461 4134 461 4397 
Q 461 4666 611 4765 
Q 762 4864 979 4864 
z
M 1453 3494 
L 1453 0 
L 499 0 
L 499 3494 
L 1453 3494 
z
" transform="scale(0.015625)"/>
      <path id="NotoSans-Bold-74" d="M 1971 698 
Q 2131 698 2278 730 
Q 2426 762 2573 806 
L 2573 96 
Q 2419 32 2192 -16 
Q 1965 -64 1696 -64 
Q 1382 -64 1136 38 
Q 890 141 746 393 
Q 602 646 602 1094 
L 602 2778 
L 147 2778 
L 147 3181 
L 672 3501 
L 947 4237 
L 1555 4237 
L 1555 3494 
L 2534 3494 
L 2534 2778 
L 1555 2778 
L 1555 1094 
Q 1555 896 1670 797 
Q 1786 698 1971 698 
z
" transform="scale(0.015625)"/>
      <path id="NotoSans-Bold-65" d="M 1939 3558 
Q 2662 3558 3084 3145 
Q 3507 2733 3507 1971 
L 3507 1510 
L 1254 1510 
Q 1267 1107 1494 876 
Q 1722 646 2125 646 
Q 2464 646 2739 713 
Q 3014 781 3309 922 
L 3309 186 
Q 3053 58 2768 -3 
Q 2483 -64 2080 -64 
Q 1555 -64 1152 131 
Q 749 326 518 723 
Q 288 1120 288 1722 
Q 288 2336 496 2742 
Q 704 3149 1075 3353 
Q 1446 3558 1939 3558 
z
M 1946 2880 
Q 1670 2880 1488 2701 
Q 1306 2522 1274 2144 
L 2611 2144 
Q 2605 2464 2445 2672 
Q 2285 2880 1946 2880 
z
" transform="scale(0.015625)"/>
      <path id="NotoSans-Bold-75" d="M 3706 3494 
L 3706 0 
L 2976 0 
L 2848 448 
L 2797 448 
Q 2630 179 2339 57 
Q 2048 -64 1722 -64 
Q 1158 -64 819 240 
Q 480 544 480 1216 
L 480 3494 
L 1434 3494 
L 1434 1453 
Q 1434 1082 1568 890 
Q 1702 698 1997 698 
Q 2432 698 2592 995 
Q 2752 1293 2752 1850 
L 2752 3494 
L 3706 3494 
z
" transform="scale(0.015625)"/>
     </defs>
     <use xlink:href="#NotoSans-Bold-76"/>
     <use xlink:href="#NotoSans-Bold-4e" transform="translate(56.899994 0)"/>
     <use xlink:href="#NotoSans-Bold-50" transform="translate(138.199982 0)"/>
     <use xlink:href="#NotoSans-Bold-55" transform="translate(200.999969 0)"/>
     <use xlink:href="#NotoSans-Bold-20" transform="translate(276.59996 0)"/>
     <use xlink:href="#NotoSans-Bold-41" transform="translate(302.599945 0)"/>
     <use xlink:href="#NotoSans-Bold-72" transform="translate(371.59993 0)"/>
     <use xlink:href="#NotoSans-Bold-63" transform="translate(416.999924 0)"/>
     <use xlink:href="#NotoSans-Bold-68" transform="translate(468.399918 0)"/>
     <use xlink:href="#NotoSans-Bold-69" transform="translate(534.099915 0)"/>
     <use xlink:href="#NotoSans-Bold-74" transform="translate(564.599899 0)"/>
     <use xlink:href="#NotoSans-Bold-65" transform="translate(607.999893 0)"/>
     <use xlink:href="#NotoSans-Bold-63" transform="translate(667.099884 0)"/>
     <use xlink:href="#NotoSans-Bold-74" transform="translate(718.499878 0)"/>
     <use xlink:href="#NotoSans-Bold-75" transform="translate(761.899872 0)"/>
     <use xlink:href="#NotoSans-Bold-72" transform="translate(827.599869 0)"/>
     <use xlink:href="#NotoSans-Bold-65" transform="translate(872.999863 0)"/>
    </g>
   </g>
   <g id="text_2">
    <!-- Membranes, Isolates, Ports, and Packets -->
    <g style="fill: #7f8c8d" transform="translate(443.847813 88.06) scale(0.14 -0.14)">
     <defs>
      <path id="NotoSans-Italic-4d" d="M 256 0 
L 1222 4570 
L 2029 4570 
L 2470 838 
L 2496 838 
L 4525 4570 
L 5402 4570 
L 4454 0 
L 3878 0 
L 4454 2714 
Q 4544 3130 4624 3469 
Q 4704 3808 4762 4013 
L 4749 4013 
L 2547 0 
L 2093 0 
L 1606 4006 
L 1581 4006 
Q 1568 3878 1536 3664 
Q 1504 3450 1462 3210 
Q 1421 2970 1376 2746 
L 794 0 
L 256 0 
z
" transform="scale(0.015625)"/>
      <path id="NotoSans-Italic-65" d="M 1549 -64 
Q 954 -64 630 285 
Q 307 634 307 1229 
Q 307 1638 425 2038 
Q 544 2438 768 2768 
Q 992 3098 1309 3296 
Q 1626 3494 2022 3494 
Q 2509 3494 2755 3283 
Q 3002 3072 3002 2694 
Q 3002 2362 2794 2086 
Q 2586 1811 2144 1648 
Q 1702 1485 998 1485 
L 890 1485 
Q 883 1427 880 1363 
Q 877 1299 877 1248 
Q 877 858 1069 630 
Q 1261 403 1651 403 
Q 1894 403 2112 473 
Q 2330 544 2586 666 
L 2586 186 
Q 2342 77 2108 6 
Q 1875 -64 1549 -64 
z
M 1018 1939 
Q 1402 1939 1728 2006 
Q 2054 2074 2252 2230 
Q 2451 2387 2451 2650 
Q 2451 2816 2339 2921 
Q 2227 3027 1990 3027 
Q 1683 3027 1398 2742 
Q 1114 2458 973 1939 
L 1018 1939 
z
" transform="scale(0.015625)"/>
      <path id="NotoSans-Italic-6d" d="M 179 0 
L 909 3430 
L 1370 3430 
L 1299 2797 
L 1331 2797 
Q 1446 2957 1603 3117 
Q 1760 3277 1968 3385 
Q 2176 3494 2438 3494 
Q 2790 3494 2979 3292 
Q 3168 3091 3206 2733 
L 3232 2733 
Q 3360 2925 3536 3097 
Q 3712 3270 3929 3382 
Q 4147 3494 4410 3494 
Q 4806 3494 5024 3276 
Q 5242 3059 5242 2650 
Q 5242 2496 5222 2365 
Q 5203 2234 5171 2086 
L 4730 0 
L 4160 0 
L 4621 2150 
Q 4653 2298 4665 2400 
Q 4678 2502 4678 2598 
Q 4678 2790 4572 2905 
Q 4467 3021 4243 3021 
Q 4038 3021 3804 2867 
Q 3571 2714 3369 2390 
Q 3168 2067 3059 1549 
L 2733 0 
L 2170 0 
L 2624 2150 
Q 2682 2438 2682 2573 
Q 2682 2784 2586 2902 
Q 2490 3021 2266 3021 
Q 2061 3021 1824 2870 
Q 1587 2720 1382 2381 
Q 1178 2042 1056 1478 
L 742 0 
L 179 0 
z
" transform="scale(0.015625)"/>
      <path id="NotoSans-Italic-62" d="M 1722 -64 
Q 1376 -64 1161 112 
Q 947 288 845 525 
L 813 525 
L 602 0 
L 179 0 
L 1210 4864 
L 1773 4864 
L 1530 3712 
Q 1485 3494 1430 3286 
Q 1376 3078 1337 2940 
Q 1299 2803 1293 2790 
L 1318 2790 
Q 1549 3072 1821 3280 
Q 2093 3488 2451 3488 
Q 2874 3488 3133 3193 
Q 3392 2899 3392 2323 
Q 3392 1856 3277 1427 
Q 3162 998 2944 662 
Q 2726 326 2419 131 
Q 2112 -64 1722 -64 
z
M 1677 403 
Q 1933 403 2144 566 
Q 2355 730 2505 1005 
Q 2656 1280 2736 1625 
Q 2816 1971 2816 2330 
Q 2816 3021 2272 3021 
Q 2061 3021 1840 2864 
Q 1619 2707 1433 2435 
Q 1248 2163 1136 1817 
Q 1024 1472 1024 1094 
Q 1024 787 1184 595 
Q 1344 403 1677 403 
z
" transform="scale(0.015625)"/>
      <path id="NotoSans-Italic-72" d="M 179 0 
L 909 3430 
L 1370 3430 
L 1299 2797 
L 1331 2797 
Q 1466 2976 1613 3133 
Q 1760 3290 1945 3392 
Q 2131 3494 2374 3494 
Q 2464 3494 2563 3484 
Q 2662 3475 2746 3450 
L 2624 2944 
Q 2451 2982 2298 2982 
Q 1978 2982 1728 2771 
Q 1478 2560 1312 2233 
Q 1146 1907 1075 1568 
L 742 0 
L 179 0 
z
" transform="scale(0.015625)"/>
      <path id="NotoSans-Italic-61" d="M 1235 -64 
Q 826 -64 566 233 
Q 307 531 307 1107 
Q 307 1587 432 2019 
Q 557 2451 781 2780 
Q 1005 3110 1312 3302 
Q 1619 3494 1990 3494 
Q 2330 3494 2541 3315 
Q 2752 3136 2854 2899 
L 2886 2899 
L 3091 3430 
L 3520 3430 
L 2790 0 
L 2342 0 
L 2426 634 
L 2400 634 
Q 2182 352 1888 144 
Q 1594 -64 1235 -64 
z
M 1421 403 
Q 1658 403 1885 576 
Q 2112 749 2297 1043 
Q 2483 1338 2579 1702 
Q 2630 1888 2646 2045 
Q 2662 2202 2662 2336 
Q 2662 2637 2496 2829 
Q 2330 3021 2048 3021 
Q 1798 3021 1587 2864 
Q 1376 2707 1216 2435 
Q 1056 2163 969 1817 
Q 883 1472 883 1094 
Q 883 749 1024 576 
Q 1165 403 1421 403 
z
" transform="scale(0.015625)"/>
      <path id="NotoSans-Italic-6e" d="M 154 0 
L 890 3450 
L 1389 3450 
L 1318 2816 
L 1325 2816 
Q 1446 2976 1609 3136 
Q 1773 3296 1990 3405 
Q 2208 3514 2483 3514 
Q 2899 3514 3132 3286 
Q 3366 3059 3366 2650 
Q 3366 2502 3344 2348 
Q 3322 2195 3296 2080 
L 2842 0 
L 2240 0 
L 2701 2157 
Q 2733 2304 2749 2403 
Q 2765 2502 2765 2592 
Q 2765 3002 2330 3002 
Q 2118 3002 1872 2854 
Q 1626 2707 1411 2374 
Q 1197 2042 1075 1478 
L 755 0 
L 154 0 
z
" transform="scale(0.015625)"/>
      <path id="NotoSans-Italic-73" d="M 992 -64 
Q 678 -64 444 -3 
Q 211 58 32 154 
L 32 672 
Q 198 570 451 483 
Q 704 397 973 397 
Q 1350 397 1548 547 
Q 1747 698 1747 934 
Q 1747 1120 1625 1245 
Q 1504 1370 1171 1555 
Q 806 1760 620 1977 
Q 435 2195 435 2522 
Q 435 2957 752 3225 
Q 1069 3494 1600 3494 
Q 1914 3494 2179 3420 
Q 2445 3347 2637 3258 
L 2458 2810 
Q 2291 2886 2086 2953 
Q 1882 3021 1600 3021 
Q 1325 3021 1161 2889 
Q 998 2758 998 2554 
Q 998 2387 1110 2262 
Q 1222 2138 1562 1952 
Q 1779 1824 1952 1696 
Q 2125 1568 2224 1401 
Q 2323 1235 2323 992 
Q 2323 474 1961 205 
Q 1600 -64 992 -64 
z
" transform="scale(0.015625)"/>
      <path id="NotoSans-Italic-2c" d="M -275 -826 
Q -109 -448 64 -19 
Q 237 410 358 742 
L 973 742 
L 998 672 
Q 838 333 608 -70 
Q 378 -474 154 -826 
L -275 -826 
z
" transform="scale(0.015625)"/>
      <path id="NotoSans-Italic-20" transform="scale(0.015625)"/>
      <path id="NotoSans-Italic-49" d="M -128 0 
L -64 314 
L 480 442 
L 1261 4128 
L 774 4250 
L 838 4570 
L 2438 4570 
L 2374 4250 
L 1824 4128 
L 1043 442 
L 1536 314 
L 1472 0 
L -128 0 
z
" transform="scale(0.015625)"/>
      <path id="NotoSans-Italic-6f" d="M 1587 -51 
Q 992 -51 649 304 
Q 307 659 307 1267 
Q 307 1664 416 2054 
Q 525 2445 739 2765 
Q 954 3085 1277 3280 
Q 1600 3475 2022 3475 
Q 2624 3475 2963 3120 
Q 3302 2765 3302 2150 
Q 3302 1760 3193 1369 
Q 3085 979 2870 659 
Q 2656 339 2336 144 
Q 2016 -51 1587 -51 
z
M 1619 416 
Q 1926 416 2176 630 
Q 2426 845 2576 1248 
Q 2726 1651 2726 2214 
Q 2726 2406 2659 2588 
Q 2592 2771 2438 2889 
Q 2285 3008 2029 3008 
Q 1677 3008 1417 2768 
Q 1158 2528 1017 2128 
Q 877 1728 877 1248 
Q 877 851 1072 633 
Q 1267 416 1619 416 
z
" transform="scale(0.015625)"/>
      <path id="NotoSans-Italic-6c" d="M 173 0 
L 1210 4864 
L 1773 4864 
L 736 0 
L 173 0 
z
" transform="scale(0.015625)"/>
      <path id="NotoSans-Italic-74" d="M 1184 -64 
Q 838 -64 601 102 
Q 365 269 365 685 
Q 365 890 422 1139 
L 813 3002 
L 282 3002 
L 333 3258 
L 909 3501 
L 1306 4211 
L 1638 4211 
L 1466 3430 
L 2330 3430 
L 2240 3002 
L 1382 3002 
L 986 1133 
Q 966 1050 947 944 
Q 928 838 928 749 
Q 928 602 1008 499 
Q 1088 397 1267 397 
Q 1382 397 1491 419 
Q 1600 442 1722 480 
L 1722 51 
Q 1645 13 1485 -25 
Q 1325 -64 1184 -64 
z
" transform="scale(0.015625)"/>
      <path id="NotoSans-Italic-50" d="M 262 0 
L 1229 4570 
L 2259 4570 
Q 3002 4570 3315 4240 
Q 3629 3910 3629 3379 
Q 3629 2605 3117 2195 
Q 2605 1786 1619 1786 
L 1210 1786 
L 832 0 
L 262 0 
z
M 1709 2266 
Q 2323 2266 2684 2531 
Q 3046 2797 3046 3360 
Q 3046 3738 2832 3907 
Q 2618 4077 2182 4077 
L 1696 4077 
L 1312 2266 
L 1709 2266 
z
" transform="scale(0.015625)"/>
      <path id="NotoSans-Italic-64" d="M 1235 -64 
Q 826 -64 566 230 
Q 307 525 307 1107 
Q 307 1581 422 2006 
Q 538 2432 758 2768 
Q 979 3104 1289 3296 
Q 1600 3488 1990 3488 
Q 2336 3488 2544 3312 
Q 2752 3136 2854 2899 
L 2886 2899 
Q 2918 3117 2947 3315 
Q 2976 3514 3027 3744 
L 3264 4864 
L 3821 4864 
L 2790 0 
L 2330 0 
L 2400 634 
L 2374 634 
Q 2144 346 1869 141 
Q 1594 -64 1235 -64 
z
M 1427 403 
Q 1638 403 1856 560 
Q 2074 717 2259 985 
Q 2445 1254 2557 1600 
Q 2669 1946 2669 2330 
Q 2669 2637 2518 2829 
Q 2368 3021 2029 3021 
Q 1773 3021 1565 2857 
Q 1357 2694 1203 2419 
Q 1050 2144 966 1798 
Q 883 1453 883 1094 
Q 883 403 1427 403 
z
" transform="scale(0.015625)"/>
      <path id="NotoSans-Italic-63" d="M 1581 -64 
Q 1011 -64 659 256 
Q 307 576 307 1216 
Q 307 1677 432 2089 
Q 557 2502 790 2816 
Q 1024 3130 1357 3312 
Q 1690 3494 2099 3494 
Q 2323 3494 2547 3449 
Q 2771 3405 2950 3328 
L 2790 2861 
Q 2662 2918 2486 2969 
Q 2310 3021 2106 3021 
Q 1741 3021 1465 2774 
Q 1190 2528 1036 2118 
Q 883 1709 883 1222 
Q 883 832 1084 617 
Q 1286 403 1638 403 
Q 1862 403 2064 467 
Q 2266 531 2464 614 
L 2464 141 
Q 2285 51 2064 -6 
Q 1843 -64 1581 -64 
z
" transform="scale(0.015625)"/>
      <path id="NotoSans-Italic-6b" d="M 173 0 
L 1203 4864 
L 1773 4864 
L 1357 2931 
Q 1248 2419 1168 2140 
Q 1088 1862 1056 1773 
L 1069 1773 
L 2694 3430 
L 3360 3430 
L 1888 1958 
L 2803 0 
L 2182 0 
L 1459 1606 
L 998 1242 
L 742 0 
L 173 0 
z
" transform="scale(0.015625)"/>
     </defs>
     <use xlink:href="#NotoSans-Italic-4d"/>
     <use xlink:href="#NotoSans-Italic-65" transform="translate(84.099991 0)"/>
     <use xlink:href="#NotoSans-Italic-6d" transform="translate(133.999985 0)"/>
     <use xlink:href="#NotoSans-Italic-62" transform="translate(221.499969 0)"/>
     <use xlink:href="#NotoSans-Italic-72" transform="translate(279.399963 0)"/>
     <use xlink:href="#NotoSans-Italic-61" transform="translate(319.199951 0)"/>
     <use xlink:href="#NotoSans-Italic-6e" transform="translate(375.999939 0)"/>
     <use xlink:href="#NotoSans-Italic-65" transform="translate(433.899933 0)"/>
     <use xlink:href="#NotoSans-Italic-73" transform="translate(483.799927 0)"/>
     <use xlink:href="#NotoSans-Italic-2c" transform="translate(526.999924 0)"/>
     <use xlink:href="#NotoSans-Italic-20" transform="translate(552.599915 0)"/>
     <use xlink:href="#NotoSans-Italic-49" transform="translate(578.599899 0)"/>
     <use xlink:href="#NotoSans-Italic-73" transform="translate(610.999893 0)"/>
     <use xlink:href="#NotoSans-Italic-6f" transform="translate(654.19989 0)"/>
     <use xlink:href="#NotoSans-Italic-6c" transform="translate(710.499878 0)"/>
     <use xlink:href="#NotoSans-Italic-61" transform="translate(736.299866 0)"/>
     <use xlink:href="#NotoSans-Italic-74" transform="translate(793.099854 0)"/>
     <use xlink:href="#NotoSans-Italic-65" transform="translate(826.29985 0)"/>
     <use xlink:href="#NotoSans-Italic-73" transform="translate(876.199844 0)"/>
     <use xlink:href="#NotoSans-Italic-2c" transform="translate(919.399841 0)"/>
     <use xlink:href="#NotoSans-Italic-20" transform="translate(944.999832 0)"/>
     <use xlink:href="#NotoSans-Italic-50" transform="translate(970.999817 0)"/>
     <use xlink:href="#NotoSans-Italic-6f" transform="translate(1027.699814 0)"/>
     <use xlink:href="#NotoSans-Italic-72" transform="translate(1083.999802 0)"/>
     <use xlink:href="#NotoSans-Italic-74" transform="translate(1123.799789 0)"/>
     <use xlink:href="#NotoSans-Italic-73" transform="translate(1156.999786 0)"/>
     <use xlink:href="#NotoSans-Italic-2c" transform="translate(1200.199783 0)"/>
     <use xlink:href="#NotoSans-Italic-20" transform="translate(1225.799774 0)"/>
     <use xlink:href="#NotoSans-Italic-61" transform="translate(1251.799759 0)"/>
     <use xlink:href="#NotoSans-Italic-6e" transform="translate(1308.599747 0)"/>
     <use xlink:href="#NotoSans-Italic-64" transform="translate(1366.499741 0)"/>
     <use xlink:href="#NotoSans-Italic-20" transform="translate(1424.399734 0)"/>
     <use xlink:href="#NotoSans-Italic-50" transform="translate(1450.399719 0)"/>
     <use xlink:href="#NotoSans-Italic-61" transform="translate(1507.099716 0)"/>
     <use xlink:href="#NotoSans-Italic-63" transform="translate(1563.899704 0)"/>
     <use xlink:href="#NotoSans-Italic-6b" transform="translate(1609.199692 0)"/>
     <use xlink:href="#NotoSans-Italic-65" transform="translate(1658.699677 0)"/>
     <use xlink:href="#NotoSans-Italic-74" transform="translate(1708.59967 0)"/>
     <use xlink:href="#NotoSans-Italic-73" transform="translate(1741.799667 0)"/>
    </g>
   </g>
   <g id="text_3">
    <!-- OUTER MEMBRANE -->
    <g style="fill: #2980b9" transform="translate(406.78875 168.66) scale(0.12 -0.12)">
     <defs>
      <path id="NotoSans-Bold-4f" d="M 4723 2291 
Q 4723 1581 4489 1053 
Q 4256 525 3776 230 
Q 3296 -64 2547 -64 
Q 1805 -64 1321 230 
Q 838 525 604 1056 
Q 371 1587 371 2298 
Q 371 3008 604 3533 
Q 838 4058 1321 4349 
Q 1805 4640 2554 4640 
Q 3296 4640 3776 4349 
Q 4256 4058 4489 3530 
Q 4723 3002 4723 2291 
z
M 1389 2291 
Q 1389 1574 1664 1161 
Q 1939 749 2547 749 
Q 3168 749 3437 1161 
Q 3706 1574 3706 2291 
Q 3706 3014 3437 3424 
Q 3168 3834 2554 3834 
Q 1939 3834 1664 3424 
Q 1389 3014 1389 2291 
z
" transform="scale(0.015625)"/>
      <path id="NotoSans-Bold-54" d="M 2336 0 
L 1370 0 
L 1370 3763 
L 128 3763 
L 128 4570 
L 3578 4570 
L 3578 3763 
L 2336 3763 
L 2336 0 
z
" transform="scale(0.015625)"/>
      <path id="NotoSans-Bold-45" d="M 3206 0 
L 576 0 
L 576 4570 
L 3206 4570 
L 3206 3776 
L 1542 3776 
L 1542 2771 
L 3091 2771 
L 3091 1978 
L 1542 1978 
L 1542 800 
L 3206 800 
L 3206 0 
z
" transform="scale(0.015625)"/>
      <path id="NotoSans-Bold-52" d="M 1907 4570 
Q 2842 4570 3286 4230 
Q 3731 3891 3731 3200 
Q 3731 2886 3612 2652 
Q 3494 2419 3299 2256 
Q 3104 2093 2880 1990 
L 4224 0 
L 3149 0 
L 2061 1754 
L 1542 1754 
L 1542 0 
L 576 0 
L 576 4570 
L 1907 4570 
z
M 1837 3776 
L 1542 3776 
L 1542 2541 
L 1856 2541 
Q 2336 2541 2544 2701 
Q 2752 2861 2752 3174 
Q 2752 3501 2531 3638 
Q 2310 3776 1837 3776 
z
" transform="scale(0.015625)"/>
      <path id="NotoSans-Bold-4d" d="M 2509 0 
L 1408 3584 
L 1382 3584 
Q 1389 3456 1401 3200 
Q 1414 2944 1427 2653 
Q 1440 2362 1440 2125 
L 1440 0 
L 576 0 
L 576 4570 
L 1894 4570 
L 2976 1075 
L 2995 1075 
L 4141 4570 
L 5459 4570 
L 5459 0 
L 4557 0 
L 4557 2163 
Q 4557 2381 4566 2662 
Q 4576 2944 4585 3197 
Q 4595 3450 4602 3578 
L 4576 3578 
L 3398 0 
L 2509 0 
z
" transform="scale(0.015625)"/>
      <path id="NotoSans-Bold-42" d="M 1997 4570 
Q 2912 4570 3379 4314 
Q 3846 4058 3846 3411 
Q 3846 3021 3664 2752 
Q 3482 2483 3142 2426 
L 3142 2394 
Q 3373 2349 3558 2233 
Q 3744 2118 3853 1900 
Q 3962 1683 3962 1325 
Q 3962 704 3514 352 
Q 3066 0 2285 0 
L 576 0 
L 576 4570 
L 1997 4570 
z
M 2106 2758 
Q 2528 2758 2691 2892 
Q 2854 3027 2854 3283 
Q 2854 3546 2662 3661 
Q 2470 3776 2054 3776 
L 1542 3776 
L 1542 2758 
L 2106 2758 
z
M 1542 1990 
L 1542 800 
L 2176 800 
Q 2611 800 2784 969 
Q 2957 1139 2957 1421 
Q 2957 1677 2781 1833 
Q 2605 1990 2144 1990 
L 1542 1990 
z
" transform="scale(0.015625)"/>
     </defs>
     <use xlink:href="#NotoSans-Bold-4f"/>
     <use xlink:href="#NotoSans-Bold-55" transform="translate(79.599991 0)"/>
     <use xlink:href="#NotoSans-Bold-54" transform="translate(155.199982 0)"/>
     <use xlink:href="#NotoSans-Bold-45" transform="translate(213.099976 0)"/>
     <use xlink:href="#NotoSans-Bold-52" transform="translate(269.09996 0)"/>
     <use xlink:href="#NotoSans-Bold-20" transform="translate(335.099945 0)"/>
     <use xlink:href="#NotoSans-Bold-4d" transform="translate(361.09993 0)"/>
     <use xlink:href="#NotoSans-Bold-45" transform="translate(455.399918 0)"/>
     <use xlink:href="#NotoSans-Bold-4d" transform="translate(511.399902 0)"/>
     <use xlink:href="#NotoSans-Bold-42" transform="translate(605.69989 0)"/>
     <use xlink:href="#NotoSans-Bold-52" transform="translate(672.899887 0)"/>
     <use xlink:href="#NotoSans-Bold-41" transform="translate(738.899872 0)"/>
     <use xlink:href="#NotoSans-Bold-4e" transform="translate(807.899857 0)"/>
     <use xlink:href="#NotoSans-Bold-45" transform="translate(889.199844 0)"/>
    </g>
   </g>
   <g id="text_4">
    <!-- TRANS MEMBRANE -->
    <g style="fill: #f39c12" transform="translate(411.833516 217.8) scale(0.11 -0.11)">
     <defs>
      <path id="NotoSans-Bold-53" d="M 3270 1267 
Q 3270 659 2832 297 
Q 2394 -64 1587 -64 
Q 864 -64 294 211 
L 294 1114 
Q 621 973 969 854 
Q 1318 736 1664 736 
Q 2022 736 2172 873 
Q 2323 1011 2323 1222 
Q 2323 1395 2204 1516 
Q 2086 1638 1888 1744 
Q 1690 1850 1434 1971 
Q 1274 2048 1088 2153 
Q 902 2259 732 2416 
Q 563 2573 454 2797 
Q 346 3021 346 3334 
Q 346 3949 762 4291 
Q 1178 4634 1894 4634 
Q 2253 4634 2576 4550 
Q 2899 4467 3251 4314 
L 2938 3558 
Q 2624 3686 2374 3756 
Q 2125 3827 1862 3827 
Q 1587 3827 1440 3699 
Q 1293 3571 1293 3366 
Q 1293 3123 1510 2982 
Q 1728 2842 2157 2637 
Q 2509 2470 2755 2291 
Q 3002 2112 3136 1869 
Q 3270 1626 3270 1267 
z
" transform="scale(0.015625)"/>
     </defs>
     <use xlink:href="#NotoSans-Bold-54"/>
     <use xlink:href="#NotoSans-Bold-52" transform="translate(57.899994 0)"/>
     <use xlink:href="#NotoSans-Bold-41" transform="translate(123.899979 0)"/>
     <use xlink:href="#NotoSans-Bold-4e" transform="translate(192.899963 0)"/>
     <use xlink:href="#NotoSans-Bold-53" transform="translate(274.199951 0)"/>
     <use xlink:href="#NotoSans-Bold-20" transform="translate(329.299942 0)"/>
     <use xlink:href="#NotoSans-Bold-4d" transform="translate(355.299927 0)"/>
     <use xlink:href="#NotoSans-Bold-45" transform="translate(449.599915 0)"/>
     <use xlink:href="#NotoSans-Bold-4d" transform="translate(505.599899 0)"/>
     <use xlink:href="#NotoSans-Bold-42" transform="translate(599.899887 0)"/>
     <use xlink:href="#NotoSans-Bold-52" transform="translate(667.099884 0)"/>
     <use xlink:href="#NotoSans-Bold-41" transform="translate(733.099869 0)"/>
     <use xlink:href="#NotoSans-Bold-4e" transform="translate(802.099854 0)"/>
     <use xlink:href="#NotoSans-Bold-45" transform="translate(883.399841 0)"/>
    </g>
   </g>
   <g id="text_5">
    <!-- INNER MEMBRANE -->
    <g style="fill: #e74c3c" transform="translate(416.820313 273.96) scale(0.1 -0.1)">
     <defs>
      <path id="NotoSans-Bold-49" d="M 2285 0 
L 205 0 
L 205 550 
L 762 806 
L 762 3763 
L 205 4019 
L 205 4570 
L 2285 4570 
L 2285 4019 
L 1728 3763 
L 1728 806 
L 2285 550 
L 2285 0 
z
" transform="scale(0.015625)"/>
     </defs>
     <use xlink:href="#NotoSans-Bold-49"/>
     <use xlink:href="#NotoSans-Bold-4e" transform="translate(38.899994 0)"/>
     <use xlink:href="#NotoSans-Bold-4e" transform="translate(120.199982 0)"/>
     <use xlink:href="#NotoSans-Bold-45" transform="translate(201.499969 0)"/>
     <use xlink:href="#NotoSans-Bold-52" transform="translate(257.499954 0)"/>
     <use xlink:href="#NotoSans-Bold-20" transform="translate(323.499939 0)"/>
     <use xlink:href="#NotoSans-Bold-4d" transform="translate(349.499924 0)"/>
     <use xlink:href="#NotoSans-Bold-45" transform="translate(443.799911 0)"/>
     <use xlink:href="#NotoSans-Bold-4d" transform="translate(499.799896 0)"/>
     <use xlink:href="#NotoSans-Bold-42" transform="translate(594.099884 0)"/>
     <use xlink:href="#NotoSans-Bold-52" transform="translate(661.299881 0)"/>
     <use xlink:href="#NotoSans-Bold-41" transform="translate(727.299866 0)"/>
     <use xlink:href="#NotoSans-Bold-4e" transform="translate(796.29985 0)"/>
     <use xlink:href="#NotoSans-Bold-45" transform="translate(877.599838 0)"/>
    </g>
   </g>
   <g id="text_6">
    <!-- ISOLATE -->
    <g style="fill: #27ae60" transform="translate(353.035 330.12) scale(0.11 -0.11)">
     <defs>
      <path id="NotoSans-Bold-4c" d="M 576 0 
L 576 4570 
L 1542 4570 
L 1542 800 
L 3398 800 
L 3398 0 
L 576 0 
z
" transform="scale(0.015625)"/>
     </defs>
     <use xlink:href="#NotoSans-Bold-49"/>
     <use xlink:href="#NotoSans-Bold-53" transform="translate(38.899994 0)"/>
     <use xlink:href="#NotoSans-Bold-4f" transform="translate(93.999985 0)"/>
     <use xlink:href="#NotoSans-Bold-4c" transform="translate(173.599976 0)"/>
     <use xlink:href="#NotoSans-Bold-41" transform="translate(230.09996 0)"/>
     <use xlink:href="#NotoSans-Bold-54" transform="translate(299.099945 0)"/>
     <use xlink:href="#NotoSans-Bold-45" transform="translate(356.999939 0)"/>
    </g>
   </g>
   <g id="text_7">
    <!-- (private heap/state) -->
    <g style="fill: #27ae60" transform="translate(336.666094 358.2) scale(0.09 -0.09)">
     <defs>
      <path id="NotoSans-Italic-28" d="M 717 -1011 
Q 499 -621 377 -147 
Q 256 326 256 851 
Q 256 1997 665 2896 
Q 1075 3795 1830 4570 
L 2349 4570 
Q 1894 4070 1542 3491 
Q 1190 2912 992 2256 
Q 794 1600 794 858 
Q 794 301 886 -156 
Q 979 -614 1152 -1011 
L 717 -1011 
z
" transform="scale(0.015625)"/>
      <path id="NotoSans-Italic-70" d="M -141 -1536 
L 909 3430 
L 1370 3430 
L 1293 2790 
L 1318 2790 
Q 1542 3072 1824 3280 
Q 2106 3488 2464 3488 
Q 2880 3488 3136 3193 
Q 3392 2899 3392 2317 
Q 3392 1850 3277 1421 
Q 3162 992 2944 656 
Q 2726 320 2416 128 
Q 2106 -64 1722 -64 
Q 1376 -64 1165 112 
Q 954 288 845 525 
L 813 525 
Q 806 422 780 240 
Q 755 58 730 -58 
L 416 -1536 
L -141 -1536 
z
M 1677 403 
Q 1933 403 2144 566 
Q 2355 730 2505 1005 
Q 2656 1280 2736 1625 
Q 2816 1971 2816 2330 
Q 2816 3021 2272 3021 
Q 2061 3021 1840 2864 
Q 1619 2707 1433 2438 
Q 1248 2170 1136 1824 
Q 1024 1478 1024 1094 
Q 1024 787 1184 595 
Q 1344 403 1677 403 
z
" transform="scale(0.015625)"/>
      <path id="NotoSans-Italic-69" d="M 1363 4000 
Q 1229 4000 1142 4080 
Q 1056 4160 1056 4301 
Q 1056 4467 1155 4588 
Q 1254 4710 1434 4710 
Q 1728 4710 1728 4422 
Q 1728 4224 1613 4112 
Q 1498 4000 1363 4000 
z
M 179 0 
L 909 3430 
L 1472 3430 
L 742 0 
L 179 0 
z
" transform="scale(0.015625)"/>
      <path id="NotoSans-Italic-76" d="M 704 0 
L 307 3430 
L 870 3430 
L 1062 1523 
Q 1082 1357 1098 1133 
Q 1114 909 1123 713 
Q 1133 518 1133 429 
L 1152 429 
Q 1222 589 1318 793 
Q 1414 998 1513 1203 
Q 1613 1408 1683 1542 
L 2694 3430 
L 3296 3430 
L 1440 0 
L 704 0 
z
" transform="scale(0.015625)"/>
      <path id="NotoSans-Italic-68" d="M 179 0 
L 1210 4864 
L 1773 4864 
L 1498 3603 
Q 1459 3411 1401 3203 
Q 1344 2995 1293 2790 
L 1325 2790 
Q 1446 2950 1612 3110 
Q 1779 3270 1993 3379 
Q 2208 3488 2483 3488 
Q 2880 3488 3113 3267 
Q 3347 3046 3347 2611 
Q 3347 2490 3328 2362 
Q 3309 2234 3277 2086 
L 2829 0 
L 2266 0 
L 2720 2150 
Q 2778 2438 2778 2573 
Q 2778 2784 2672 2902 
Q 2566 3021 2330 3021 
Q 2112 3021 1859 2870 
Q 1606 2720 1392 2381 
Q 1178 2042 1056 1478 
L 742 0 
L 179 0 
z
" transform="scale(0.015625)"/>
      <path id="NotoSans-Italic-2f" d="M -294 0 
L 2246 4570 
L 2822 4570 
L 288 0 
L -294 0 
z
" transform="scale(0.015625)"/>
      <path id="NotoSans-Italic-29" d="M -493 -1011 
Q -38 -506 310 70 
Q 659 646 857 1305 
Q 1056 1965 1056 2701 
Q 1056 3251 966 3715 
Q 877 4179 704 4570 
L 1139 4570 
Q 1357 4179 1475 3705 
Q 1594 3232 1594 2701 
Q 1594 1562 1187 662 
Q 781 -237 19 -1011 
L -493 -1011 
z
" transform="scale(0.015625)"/>
     </defs>
     <use xlink:href="#NotoSans-Italic-28"/>
     <use xlink:href="#NotoSans-Italic-70" transform="translate(28.999985 0)"/>
     <use xlink:href="#NotoSans-Italic-72" transform="translate(86.899979 0)"/>
     <use xlink:href="#NotoSans-Italic-69" transform="translate(126.699966 0)"/>
     <use xlink:href="#NotoSans-Italic-76" transform="translate(152.499954 0)"/>
     <use xlink:href="#NotoSans-Italic-61" transform="translate(199.199951 0)"/>
     <use xlink:href="#NotoSans-Italic-74" transform="translate(255.999939 0)"/>
     <use xlink:href="#NotoSans-Italic-65" transform="translate(289.199936 0)"/>
     <use xlink:href="#NotoSans-Italic-20" transform="translate(339.09993 0)"/>
     <use xlink:href="#NotoSans-Italic-68" transform="translate(365.099915 0)"/>
     <use xlink:href="#NotoSans-Italic-65" transform="translate(422.999908 0)"/>
     <use xlink:href="#NotoSans-Italic-61" transform="translate(472.899902 0)"/>
     <use xlink:href="#NotoSans-Italic-70" transform="translate(529.69989 0)"/>
     <use xlink:href="#NotoSans-Italic-2f" transform="translate(587.599884 0)"/>
     <use xlink:href="#NotoSans-Italic-73" transform="translate(623.199875 0)"/>
     <use xlink:href="#NotoSans-Italic-74" transform="translate(666.399872 0)"/>
     <use xlink:href="#NotoSans-Italic-61" transform="translate(699.599869 0)"/>
     <use xlink:href="#NotoSans-Italic-74" transform="translate(756.399857 0)"/>
     <use xlink:href="#NotoSans-Italic-65" transform="translate(789.599854 0)"/>
     <use xlink:href="#NotoSans-Italic-29" transform="translate(839.499847 0)"/>
    </g>
   </g>
   <g id="text_8">
    <!-- entry: g_main -->
    <g style="fill: #8e44ad" transform="translate(341.539063 596.88) scale(0.1 -0.1)">
     <defs>
      <path id="NotoSans-Bold-6e" d="M 2483 3558 
Q 3046 3558 3385 3254 
Q 3725 2950 3725 2278 
L 3725 0 
L 2771 0 
L 2771 2042 
Q 2771 2419 2636 2608 
Q 2502 2797 2208 2797 
Q 1773 2797 1613 2499 
Q 1453 2202 1453 1645 
L 1453 0 
L 499 0 
L 499 3494 
L 1229 3494 
L 1357 3046 
L 1408 3046 
Q 1574 3315 1865 3436 
Q 2157 3558 2483 3558 
z
" transform="scale(0.015625)"/>
      <path id="NotoSans-Bold-79" d="M 0 3494 
L 1043 3494 
L 1702 1530 
Q 1754 1389 1779 1238 
Q 1805 1088 1818 922 
L 1837 922 
Q 1856 1088 1891 1238 
Q 1926 1389 1971 1530 
L 2618 3494 
L 3642 3494 
L 2163 -448 
Q 1965 -992 1584 -1264 
Q 1203 -1536 704 -1536 
Q 544 -1536 425 -1520 
Q 307 -1504 218 -1485 
L 218 -730 
Q 288 -742 387 -755 
Q 486 -768 595 -768 
Q 896 -768 1072 -585 
Q 1248 -403 1331 -147 
L 1389 26 
L 0 3494 
z
" transform="scale(0.015625)"/>
      <path id="NotoSans-Bold-3a" d="M 365 3027 
Q 365 3322 525 3440 
Q 685 3558 915 3558 
Q 1139 3558 1299 3440 
Q 1459 3322 1459 3027 
Q 1459 2746 1299 2621 
Q 1139 2496 915 2496 
Q 685 2496 525 2621 
Q 365 2746 365 3027 
z
M 365 448 
Q 365 742 525 860 
Q 685 979 915 979 
Q 1139 979 1299 860 
Q 1459 742 1459 448 
Q 1459 166 1299 41 
Q 1139 -83 915 -83 
Q 685 -83 525 41 
Q 365 166 365 448 
z
" transform="scale(0.015625)"/>
      <path id="NotoSans-Bold-67" d="M 1632 3558 
Q 2278 3558 2643 3046 
L 2669 3046 
L 2746 3494 
L 3552 3494 
L 3552 -6 
Q 3552 -755 3110 -1145 
Q 2669 -1536 1805 -1536 
Q 1434 -1536 1117 -1491 
Q 800 -1446 499 -1331 
L 499 -570 
Q 1146 -838 1862 -838 
Q 2598 -838 2598 -45 
L 2598 26 
Q 2598 134 2608 249 
Q 2618 365 2624 454 
L 2598 454 
Q 2419 179 2169 57 
Q 1920 -64 1606 -64 
Q 986 -64 637 413 
Q 288 890 288 1741 
Q 288 2598 646 3078 
Q 1005 3558 1632 3558 
z
M 1933 2784 
Q 1261 2784 1261 1728 
Q 1261 685 1946 685 
Q 2310 685 2486 893 
Q 2662 1101 2662 1619 
L 2662 1734 
Q 2662 2298 2489 2541 
Q 2317 2784 1933 2784 
z
" transform="scale(0.015625)"/>
      <path id="NotoSans-Bold-5f" d="M 2643 -1011 
L -13 -1011 
L -13 -576 
L 2643 -576 
L 2643 -1011 
z
" transform="scale(0.015625)"/>
      <path id="NotoSans-Bold-6d" d="M 4602 3558 
Q 5197 3558 5501 3254 
Q 5805 2950 5805 2278 
L 5805 0 
L 4851 0 
L 4851 2042 
Q 4851 2797 4326 2797 
Q 3949 2797 3789 2528 
Q 3629 2259 3629 1754 
L 3629 0 
L 2675 0 
L 2675 2042 
Q 2675 2797 2150 2797 
Q 1754 2797 1603 2499 
Q 1453 2202 1453 1645 
L 1453 0 
L 499 0 
L 499 3494 
L 1229 3494 
L 1357 3046 
L 1408 3046 
Q 1568 3315 1846 3436 
Q 2125 3558 2426 3558 
Q 2810 3558 3078 3433 
Q 3347 3309 3488 3046 
L 3571 3046 
Q 3731 3315 4016 3436 
Q 4301 3558 4602 3558 
z
" transform="scale(0.015625)"/>
      <path id="NotoSans-Bold-61" d="M 1933 3565 
Q 2637 3565 3011 3261 
Q 3386 2957 3386 2330 
L 3386 0 
L 2720 0 
L 2534 474 
L 2509 474 
Q 2285 192 2035 64 
Q 1786 -64 1350 -64 
Q 883 -64 576 208 
Q 269 480 269 1043 
Q 269 1600 659 1865 
Q 1050 2131 1830 2157 
L 2438 2176 
L 2438 2330 
Q 2438 2605 2294 2733 
Q 2150 2861 1894 2861 
Q 1638 2861 1395 2787 
Q 1152 2714 909 2605 
L 595 3251 
Q 877 3398 1219 3481 
Q 1562 3565 1933 3565 
z
M 2067 1606 
Q 1606 1594 1427 1440 
Q 1248 1286 1248 1037 
Q 1248 819 1376 726 
Q 1504 634 1709 634 
Q 2016 634 2227 816 
Q 2438 998 2438 1331 
L 2438 1619 
L 2067 1606 
z
" transform="scale(0.015625)"/>
     </defs>
     <use xlink:href="#NotoSans-Bold-65"/>
     <use xlink:href="#NotoSans-Bold-6e" transform="translate(59.099991 0)"/>
     <use xlink:href="#NotoSans-Bold-74" transform="translate(124.799988 0)"/>
     <use xlink:href="#NotoSans-Bold-72" transform="translate(168.199982 0)"/>
     <use xlink:href="#NotoSans-Bold-79" transform="translate(213.599976 0)"/>
     <use xlink:href="#NotoSans-Bold-3a" transform="translate(270.499969 0)"/>
     <use xlink:href="#NotoSans-Bold-20" transform="translate(298.999954 0)"/>
     <use xlink:href="#NotoSans-Bold-67" transform="translate(324.999939 0)"/>
     <use xlink:href="#NotoSans-Bold-5f" transform="translate(388.299927 0)"/>
     <use xlink:href="#NotoSans-Bold-6d" transform="translate(429.399918 0)"/>
     <use xlink:href="#NotoSans-Bold-61" transform="translate(527.599899 0)"/>
     <use xlink:href="#NotoSans-Bold-69" transform="translate(587.999893 0)"/>
     <use xlink:href="#NotoSans-Bold-6e" transform="translate(618.499878 0)"/>
    </g>
   </g>
   <g id="text_9">
    <!-- PORTS -->
    <g style="fill: #3498db" transform="translate(359.680469 400.32) scale(0.1 -0.1)">
     <use xlink:href="#NotoSans-Bold-50"/>
     <use xlink:href="#NotoSans-Bold-4f" transform="translate(62.799988 0)"/>
     <use xlink:href="#NotoSans-Bold-52" transform="translate(142.399979 0)"/>
     <use xlink:href="#NotoSans-Bold-54" transform="translate(208.399963 0)"/>
     <use xlink:href="#NotoSans-Bold-53" transform="translate(266.299957 0)"/>
    </g>
   </g>
   <g id="text_10">
    <!-- in -->
    <g style="fill: #2c3e50" transform="translate(249.051875 479.62) scale(0.08 -0.08)">
     <use xlink:href="#NotoSans-Bold-69"/>
     <use xlink:href="#NotoSans-Bold-6e" transform="translate(30.499985 0)"/>
    </g>
   </g>
   <g id="text_11">
    <!-- out -->
    <g style="fill: #2c3e50" transform="translate(316.259375 479.62) scale(0.08 -0.08)">
     <defs>
      <path id="NotoSans-Bold-6f" d="M 3674 1754 
Q 3674 883 3216 409 
Q 2758 -64 1971 -64 
Q 1485 -64 1104 147 
Q 723 358 505 764 
Q 288 1171 288 1754 
Q 288 2624 742 3091 
Q 1197 3558 1990 3558 
Q 2483 3558 2860 3347 
Q 3238 3136 3456 2736 
Q 3674 2336 3674 1754 
z
M 1261 1754 
Q 1261 1235 1430 969 
Q 1600 704 1984 704 
Q 2362 704 2531 969 
Q 2701 1235 2701 1754 
Q 2701 2272 2531 2531 
Q 2362 2790 1978 2790 
Q 1600 2790 1430 2531 
Q 1261 2272 1261 1754 
z
" transform="scale(0.015625)"/>
     </defs>
     <use xlink:href="#NotoSans-Bold-6f"/>
     <use xlink:href="#NotoSans-Bold-75" transform="translate(61.899994 0)"/>
     <use xlink:href="#NotoSans-Bold-74" transform="translate(127.599991 0)"/>
    </g>
   </g>
   <g id="text_12">
    <!-- ctl -->
    <g style="fill: #2c3e50" transform="translate(388.2875 479.62) scale(0.08 -0.08)">
     <defs>
      <path id="NotoSans-Bold-6c" d="M 1453 0 
L 499 0 
L 499 4864 
L 1453 4864 
L 1453 0 
z
" transform="scale(0.015625)"/>
     </defs>
     <use xlink:href="#NotoSans-Bold-63"/>
     <use xlink:href="#NotoSans-Bold-74" transform="translate(51.399994 0)"/>
     <use xlink:href="#NotoSans-Bold-6c" transform="translate(94.799988 0)"/>
    </g>
   </g>
   <g id="text_13">
    <!-- stat -->
    <g style="fill: #2c3e50" transform="translate(455.623125 479.62) scale(0.08 -0.08)">
     <defs>
      <path id="NotoSans-Bold-73" d="M 2938 1037 
Q 2938 506 2563 221 
Q 2189 -64 1446 -64 
Q 1082 -64 819 -16 
Q 557 32 294 141 
L 294 928 
Q 576 800 902 717 
Q 1229 634 1478 634 
Q 1760 634 1878 717 
Q 1997 800 1997 934 
Q 1997 1024 1949 1094 
Q 1901 1165 1741 1254 
Q 1581 1344 1242 1485 
Q 915 1626 704 1763 
Q 493 1901 390 2096 
Q 288 2291 288 2586 
Q 288 3072 665 3315 
Q 1043 3558 1670 3558 
Q 1997 3558 2291 3494 
Q 2586 3430 2899 3283 
L 2611 2598 
Q 2355 2707 2124 2780 
Q 1894 2854 1658 2854 
Q 1235 2854 1235 2624 
Q 1235 2541 1289 2473 
Q 1344 2406 1501 2329 
Q 1658 2253 1965 2125 
Q 2266 2003 2483 1872 
Q 2701 1741 2819 1545 
Q 2938 1350 2938 1037 
z
" transform="scale(0.015625)"/>
     </defs>
     <use xlink:href="#NotoSans-Bold-73"/>
     <use xlink:href="#NotoSans-Bold-74" transform="translate(49.699997 0)"/>
     <use xlink:href="#NotoSans-Bold-61" transform="translate(93.099991 0)"/>
     <use xlink:href="#NotoSans-Bold-74" transform="translate(153.499985 0)"/>
    </g>
   </g>
   <g id="text_14">
    <!-- POLICY -->
    <g style="fill: #d4ac0d" transform="translate(666.434688 414.36) scale(0.1 -0.1)">
     <defs>
      <path id="NotoSans-Bold-43" d="M 2515 3827 
Q 1958 3827 1664 3411 
Q 1370 2995 1370 2272 
Q 1370 1542 1642 1142 
Q 1914 742 2515 742 
Q 2797 742 3075 806 
Q 3354 870 3680 986 
L 3680 173 
Q 3379 51 3084 -6 
Q 2790 -64 2426 -64 
Q 1722 -64 1264 227 
Q 806 518 588 1046 
Q 371 1574 371 2278 
Q 371 2970 620 3501 
Q 870 4032 1347 4333 
Q 1824 4634 2515 4634 
Q 2854 4634 3196 4547 
Q 3539 4461 3853 4314 
L 3539 3526 
Q 3283 3648 3024 3737 
Q 2765 3827 2515 3827 
z
" transform="scale(0.015625)"/>
      <path id="NotoSans-Bold-59" d="M 1997 2688 
L 2950 4570 
L 3994 4570 
L 2477 1779 
L 2477 0 
L 1517 0 
L 1517 1747 
L 0 4570 
L 1050 4570 
L 1997 2688 
z
" transform="scale(0.015625)"/>
     </defs>
     <use xlink:href="#NotoSans-Bold-50"/>
     <use xlink:href="#NotoSans-Bold-4f" transform="translate(62.799988 0)"/>
     <use xlink:href="#NotoSans-Bold-4c" transform="translate(142.399979 0)"/>
     <use xlink:href="#NotoSans-Bold-49" transform="translate(198.899963 0)"/>
     <use xlink:href="#NotoSans-Bold-43" transform="translate(237.799957 0)"/>
     <use xlink:href="#NotoSans-Bold-59" transform="translate(301.499954 0)"/>
    </g>
   </g>
   <g id="text_15">
    <!-- Enforcement -->
    <g style="fill: #d4ac0d" transform="translate(657.369141 456.48) scale(0.09 -0.09)">
     <defs>
      <path id="NotoSans-Regular-45" d="M 3174 0 
L 621 0 
L 621 4570 
L 3174 4570 
L 3174 4064 
L 1197 4064 
L 1197 2637 
L 3059 2637 
L 3059 2138 
L 1197 2138 
L 1197 506 
L 3174 506 
L 3174 0 
z
" transform="scale(0.015625)"/>
      <path id="NotoSans-Regular-6e" d="M 2195 3494 
Q 2810 3494 3123 3196 
Q 3437 2899 3437 2234 
L 3437 0 
L 2880 0 
L 2880 2195 
Q 2880 3021 2112 3021 
Q 1542 3021 1324 2701 
Q 1107 2381 1107 1779 
L 1107 0 
L 544 0 
L 544 3430 
L 998 3430 
L 1082 2963 
L 1114 2963 
Q 1280 3232 1574 3363 
Q 1869 3494 2195 3494 
z
" transform="scale(0.015625)"/>
      <path id="NotoSans-Regular-66" d="M 2125 2995 
L 1261 2995 
L 1261 0 
L 698 0 
L 698 2995 
L 96 2995 
L 96 3258 
L 698 3450 
L 698 3648 
Q 698 4314 992 4605 
Q 1286 4896 1811 4896 
Q 2016 4896 2185 4861 
Q 2355 4826 2477 4781 
L 2330 4339 
Q 2227 4371 2092 4403 
Q 1958 4435 1818 4435 
Q 1536 4435 1398 4246 
Q 1261 4058 1261 3654 
L 1261 3430 
L 2125 3430 
L 2125 2995 
z
" transform="scale(0.015625)"/>
      <path id="NotoSans-Regular-6f" d="M 3526 1722 
Q 3526 870 3094 403 
Q 2662 -64 1926 -64 
Q 1472 -64 1117 144 
Q 762 352 557 752 
Q 352 1152 352 1722 
Q 352 2573 781 3033 
Q 1210 3494 1946 3494 
Q 2413 3494 2768 3286 
Q 3123 3078 3324 2684 
Q 3526 2291 3526 1722 
z
M 934 1722 
Q 934 1114 1174 758 
Q 1414 403 1939 403 
Q 2458 403 2701 758 
Q 2944 1114 2944 1722 
Q 2944 2330 2701 2675 
Q 2458 3021 1933 3021 
Q 1408 3021 1171 2675 
Q 934 2330 934 1722 
z
" transform="scale(0.015625)"/>
      <path id="NotoSans-Regular-72" d="M 2144 3494 
Q 2240 3494 2352 3484 
Q 2464 3475 2547 3456 
L 2477 2938 
Q 2394 2957 2294 2969 
Q 2195 2982 2106 2982 
Q 1843 2982 1612 2838 
Q 1382 2694 1244 2435 
Q 1107 2176 1107 1830 
L 1107 0 
L 544 0 
L 544 3430 
L 1005 3430 
L 1069 2803 
L 1094 2803 
Q 1261 3085 1523 3289 
Q 1786 3494 2144 3494 
z
" transform="scale(0.015625)"/>
      <path id="NotoSans-Regular-63" d="M 1920 -64 
Q 1466 -64 1110 121 
Q 755 307 553 697 
Q 352 1088 352 1696 
Q 352 2330 563 2726 
Q 774 3123 1136 3308 
Q 1498 3494 1958 3494 
Q 2221 3494 2464 3440 
Q 2707 3386 2861 3309 
L 2688 2842 
Q 2534 2899 2329 2950 
Q 2125 3002 1946 3002 
Q 934 3002 934 1702 
Q 934 1082 1180 752 
Q 1427 422 1914 422 
Q 2195 422 2409 480 
Q 2624 538 2803 621 
L 2803 122 
Q 2630 32 2422 -16 
Q 2214 -64 1920 -64 
z
" transform="scale(0.015625)"/>
      <path id="NotoSans-Regular-65" d="M 1869 3494 
Q 2310 3494 2627 3302 
Q 2944 3110 3113 2761 
Q 3283 2413 3283 1946 
L 3283 1606 
L 934 1606 
Q 947 1024 1232 720 
Q 1517 416 2029 416 
Q 2355 416 2608 477 
Q 2861 538 3130 653 
L 3130 160 
Q 2867 45 2611 -9 
Q 2355 -64 2003 -64 
Q 1517 -64 1142 134 
Q 768 333 560 726 
Q 352 1120 352 1690 
Q 352 2253 541 2656 
Q 730 3059 1072 3276 
Q 1414 3494 1869 3494 
z
M 1862 3034 
Q 1459 3034 1225 2774 
Q 992 2515 947 2054 
L 2694 2054 
Q 2688 2490 2489 2762 
Q 2291 3034 1862 3034 
z
" transform="scale(0.015625)"/>
      <path id="NotoSans-Regular-6d" d="M 4307 3494 
Q 4890 3494 5178 3196 
Q 5466 2899 5466 2234 
L 5466 0 
L 4909 0 
L 4909 2208 
Q 4909 3021 4211 3021 
Q 3712 3021 3497 2733 
Q 3283 2445 3283 1894 
L 3283 0 
L 2726 0 
L 2726 2208 
Q 2726 3021 2022 3021 
Q 1504 3021 1305 2701 
Q 1107 2381 1107 1779 
L 1107 0 
L 544 0 
L 544 3430 
L 998 3430 
L 1082 2963 
L 1114 2963 
Q 1274 3232 1546 3363 
Q 1818 3494 2125 3494 
Q 2931 3494 3174 2918 
L 3206 2918 
Q 3379 3213 3676 3353 
Q 3974 3494 4307 3494 
z
" transform="scale(0.015625)"/>
      <path id="NotoSans-Regular-74" d="M 1690 397 
Q 1818 397 1952 419 
Q 2086 442 2170 467 
L 2170 38 
Q 2080 -6 1913 -35 
Q 1747 -64 1594 -64 
Q 1325 -64 1097 29 
Q 870 122 729 352 
Q 589 582 589 998 
L 589 2995 
L 102 2995 
L 102 3264 
L 595 3488 
L 819 4218 
L 1152 4218 
L 1152 3430 
L 2144 3430 
L 2144 2995 
L 1152 2995 
L 1152 1011 
Q 1152 698 1302 547 
Q 1453 397 1690 397 
z
" transform="scale(0.015625)"/>
     </defs>
     <use xlink:href="#NotoSans-Regular-45"/>
     <use xlink:href="#NotoSans-Regular-6e" transform="translate(55.599991 0)"/>
     <use xlink:href="#NotoSans-Regular-66" transform="translate(117.399979 0)"/>
     <use xlink:href="#NotoSans-Regular-6f" transform="translate(151.799973 0)"/>
     <use xlink:href="#NotoSans-Regular-72" transform="translate(212.299957 0)"/>
     <use xlink:href="#NotoSans-Regular-63" transform="translate(253.599945 0)"/>
     <use xlink:href="#NotoSans-Regular-65" transform="translate(301.59993 0)"/>
     <use xlink:href="#NotoSans-Regular-6d" transform="translate(357.999924 0)"/>
     <use xlink:href="#NotoSans-Regular-65" transform="translate(451.499908 0)"/>
     <use xlink:href="#NotoSans-Regular-6e" transform="translate(507.899902 0)"/>
     <use xlink:href="#NotoSans-Regular-74" transform="translate(569.69989 0)"/>
    </g>
   </g>
   <g id="text_16">
    <!--  provenance  0.7 -->
    <g style="fill: #7d6608" transform="translate(648.174375 498.6) scale(0.08 -0.08)">
     <defs>
      <path id="NotoSans-Regular-2022" d="M 493 2336 
Q 493 2771 697 2950 
Q 902 3130 1203 3130 
Q 1504 3130 1709 2950 
Q 1914 2771 1914 2336 
Q 1914 1914 1709 1728 
Q 1504 1542 1203 1542 
Q 902 1542 697 1728 
Q 493 1914 493 2336 
z
" transform="scale(0.015625)"/>
      <path id="NotoSans-Regular-20" transform="scale(0.015625)"/>
      <path id="NotoSans-Regular-70" d="M 2176 3494 
Q 2810 3494 3197 3052 
Q 3584 2611 3584 1722 
Q 3584 845 3197 390 
Q 2810 -64 2170 -64 
Q 1773 -64 1513 86 
Q 1254 237 1107 435 
L 1069 435 
Q 1082 326 1094 160 
Q 1107 -6 1107 -128 
L 1107 -1536 
L 544 -1536 
L 544 3430 
L 1005 3430 
L 1082 2963 
L 1107 2963 
Q 1261 3187 1510 3340 
Q 1760 3494 2176 3494 
z
M 2074 3021 
Q 1549 3021 1334 2726 
Q 1120 2432 1107 1830 
L 1107 1722 
Q 1107 1088 1315 745 
Q 1523 403 2086 403 
Q 2400 403 2601 576 
Q 2803 749 2902 1046 
Q 3002 1344 3002 1728 
Q 3002 2317 2774 2669 
Q 2547 3021 2074 3021 
z
" transform="scale(0.015625)"/>
      <path id="NotoSans-Regular-76" d="M 1299 0 
L 0 3430 
L 602 3430 
L 1331 1408 
Q 1382 1267 1440 1094 
Q 1498 922 1542 765 
Q 1587 608 1606 499 
L 1632 499 
Q 1658 608 1706 768 
Q 1754 928 1814 1101 
Q 1875 1274 1920 1408 
L 2650 3430 
L 3251 3430 
L 1946 0 
L 1299 0 
z
" transform="scale(0.015625)"/>
      <path id="NotoSans-Regular-61" d="M 1843 3488 
Q 2470 3488 2771 3213 
Q 3072 2938 3072 2336 
L 3072 0 
L 2662 0 
L 2554 486 
L 2528 486 
Q 2304 205 2057 70 
Q 1811 -64 1376 -64 
Q 909 -64 601 182 
Q 294 429 294 954 
Q 294 1466 697 1744 
Q 1101 2022 1939 2048 
L 2522 2067 
L 2522 2272 
Q 2522 2701 2336 2867 
Q 2150 3034 1811 3034 
Q 1542 3034 1299 2954 
Q 1056 2874 845 2771 
L 672 3194 
Q 896 3315 1203 3401 
Q 1510 3488 1843 3488 
z
M 2010 1658 
Q 1370 1632 1123 1453 
Q 877 1274 877 947 
Q 877 659 1053 524 
Q 1229 390 1504 390 
Q 1939 390 2227 630 
Q 2515 870 2515 1370 
L 2515 1677 
L 2010 1658 
z
" transform="scale(0.015625)"/>
      <path id="NotoSansCJKsc-Regular-2265" d="M 806 230 
L 960 -154 
L 5741 1779 
L 5587 2163 
L 806 230 
z
M 4563 3123 
L 794 1600 
L 960 1190 
L 5734 3123 
L 5734 3142 
L 960 5075 
L 794 4666 
L 4563 3142 
L 4563 3123 
z
" transform="scale(0.015625)"/>
      <path id="NotoSans-Regular-30" d="M 3347 2291 
Q 3347 1555 3193 1027 
Q 3040 499 2707 217 
Q 2374 -64 1824 -64 
Q 1050 -64 682 560 
Q 314 1184 314 2291 
Q 314 3034 464 3558 
Q 614 4083 947 4361 
Q 1280 4640 1824 4640 
Q 2592 4640 2969 4022 
Q 3347 3405 3347 2291 
z
M 877 2291 
Q 877 1350 1091 883 
Q 1306 416 1824 416 
Q 2336 416 2557 880 
Q 2778 1344 2778 2291 
Q 2778 3226 2557 3693 
Q 2336 4160 1824 4160 
Q 1306 4160 1091 3693 
Q 877 3226 877 2291 
z
" transform="scale(0.015625)"/>
      <path id="NotoSans-Regular-2e" d="M 461 346 
Q 461 582 576 678 
Q 691 774 851 774 
Q 1018 774 1136 678 
Q 1254 582 1254 346 
Q 1254 115 1136 12 
Q 1018 -90 851 -90 
Q 691 -90 576 12 
Q 461 115 461 346 
z
" transform="scale(0.015625)"/>
      <path id="NotoSans-Regular-37" d="M 870 0 
L 2746 4058 
L 282 4058 
L 282 4570 
L 3347 4570 
L 3347 4134 
L 1491 0 
L 870 0 
z
" transform="scale(0.015625)"/>
     </defs>
     <use xlink:href="#NotoSans-Regular-2022"/>
     <use xlink:href="#NotoSans-Regular-20" transform="translate(37.599991 0)"/>
     <use xlink:href="#NotoSans-Regular-70" transform="translate(63.599976 0)"/>
     <use xlink:href="#NotoSans-Regular-72" transform="translate(125.09996 0)"/>
     <use xlink:href="#NotoSans-Regular-6f" transform="translate(166.399948 0)"/>
     <use xlink:href="#NotoSans-Regular-76" transform="translate(226.899933 0)"/>
     <use xlink:href="#NotoSans-Regular-65" transform="translate(277.699921 0)"/>
     <use xlink:href="#NotoSans-Regular-6e" transform="translate(334.099915 0)"/>
     <use xlink:href="#NotoSans-Regular-61" transform="translate(395.899902 0)"/>
     <use xlink:href="#NotoSans-Regular-6e" transform="translate(451.999893 0)"/>
     <use xlink:href="#NotoSans-Regular-63" transform="translate(513.799881 0)"/>
     <use xlink:href="#NotoSans-Regular-65" transform="translate(561.799866 0)"/>
     <use xlink:href="#NotoSans-Regular-20" transform="translate(618.19986 0)"/>
     <use xlink:href="#NotoSansCJKsc-Regular-2265" transform="translate(644.199844 0)"/>
     <use xlink:href="#NotoSans-Regular-20" transform="translate(744.199829 0)"/>
     <use xlink:href="#NotoSans-Regular-30" transform="translate(770.199814 0)"/>
     <use xlink:href="#NotoSans-Regular-2e" transform="translate(827.399811 0)"/>
     <use xlink:href="#NotoSans-Regular-37" transform="translate(854.199799 0)"/>
    </g>
   </g>
   <g id="text_17">
    <!--  budget  4096 -->
    <g style="fill: #7d6608" transform="translate(653.301875 533.7) scale(0.08 -0.08)">
     <defs>
      <path id="NotoSans-Regular-62" d="M 1107 3680 
Q 1107 3462 1097 3273 
Q 1088 3085 1075 2976 
L 1107 2976 
Q 1254 3194 1510 3341 
Q 1766 3488 2170 3488 
Q 2810 3488 3197 3043 
Q 3584 2598 3584 1715 
Q 3584 832 3193 384 
Q 2803 -64 2170 -64 
Q 1766 -64 1510 83 
Q 1254 230 1107 435 
L 1062 435 
L 947 0 
L 544 0 
L 544 4864 
L 1107 4864 
L 1107 3680 
z
M 2074 3021 
Q 1530 3021 1318 2707 
Q 1107 2394 1107 1734 
L 1107 1709 
Q 1107 1075 1315 739 
Q 1523 403 2086 403 
Q 2547 403 2774 742 
Q 3002 1082 3002 1722 
Q 3002 3021 2074 3021 
z
" transform="scale(0.015625)"/>
      <path id="NotoSans-Regular-75" d="M 3411 3430 
L 3411 0 
L 2950 0 
L 2867 454 
L 2842 454 
Q 2675 186 2380 61 
Q 2086 -64 1754 -64 
Q 1133 -64 819 233 
Q 506 531 506 1184 
L 506 3430 
L 1075 3430 
L 1075 1222 
Q 1075 403 1837 403 
Q 2406 403 2627 723 
Q 2848 1043 2848 1645 
L 2848 3430 
L 3411 3430 
z
" transform="scale(0.015625)"/>
      <path id="NotoSans-Regular-64" d="M 1760 -64 
Q 1120 -64 736 381 
Q 352 826 352 1709 
Q 352 2592 739 3043 
Q 1126 3494 1766 3494 
Q 2163 3494 2416 3347 
Q 2669 3200 2829 2989 
L 2867 2989 
Q 2861 3072 2845 3235 
Q 2829 3398 2829 3494 
L 2829 4864 
L 3392 4864 
L 3392 0 
L 2938 0 
L 2854 461 
L 2829 461 
Q 2675 243 2419 89 
Q 2163 -64 1760 -64 
z
M 1850 403 
Q 2394 403 2614 700 
Q 2835 998 2835 1600 
L 2835 1702 
Q 2835 2342 2624 2684 
Q 2413 3027 1843 3027 
Q 1389 3027 1161 2665 
Q 934 2304 934 1696 
Q 934 1082 1161 742 
Q 1389 403 1850 403 
z
" transform="scale(0.015625)"/>
      <path id="NotoSans-Regular-67" d="M 1760 3494 
Q 2099 3494 2371 3366 
Q 2643 3238 2835 2976 
L 2867 2976 
L 2944 3430 
L 3392 3430 
L 3392 -58 
Q 3392 -794 3017 -1165 
Q 2643 -1536 1856 -1536 
Q 1101 -1536 621 -1318 
L 621 -800 
Q 1126 -1069 1888 -1069 
Q 2330 -1069 2582 -809 
Q 2835 -550 2835 -102 
L 2835 32 
Q 2835 109 2841 253 
Q 2848 397 2854 454 
L 2829 454 
Q 2483 -64 1766 -64 
Q 1101 -64 726 403 
Q 352 870 352 1709 
Q 352 2528 726 3011 
Q 1101 3494 1760 3494 
z
M 1837 3021 
Q 1408 3021 1171 2678 
Q 934 2336 934 1702 
Q 934 1069 1168 733 
Q 1402 397 1850 397 
Q 2368 397 2605 675 
Q 2842 954 2842 1574 
L 2842 1709 
Q 2842 2413 2598 2717 
Q 2355 3021 1837 3021 
z
" transform="scale(0.015625)"/>
      <path id="NotoSansCJKsc-Regular-2264" d="M 5594 230 
L 813 2163 
L 659 1779 
L 5440 -154 
L 5594 230 
z
M 1837 3123 
L 1837 3142 
L 5606 4666 
L 5440 5075 
L 666 3142 
L 666 3123 
L 5440 1190 
L 5606 1600 
L 1837 3123 
z
" transform="scale(0.015625)"/>
      <path id="NotoSans-Regular-34" d="M 3533 1037 
L 2867 1037 
L 2867 0 
L 2323 0 
L 2323 1037 
L 134 1037 
L 134 1517 
L 2285 4595 
L 2867 4595 
L 2867 1542 
L 3533 1542 
L 3533 1037 
z
M 2323 2982 
Q 2323 3315 2336 3548 
Q 2349 3782 2355 3994 
L 2330 3994 
Q 2278 3872 2201 3731 
Q 2125 3590 2054 3494 
L 685 1542 
L 2323 1542 
L 2323 2982 
z
" transform="scale(0.015625)"/>
      <path id="NotoSans-Regular-39" d="M 3328 2618 
Q 3328 2125 3241 1648 
Q 3155 1171 2928 784 
Q 2701 397 2288 166 
Q 1875 -64 1229 -64 
Q 1101 -64 931 -48 
Q 762 -32 653 0 
L 653 480 
Q 902 397 1216 397 
Q 1664 397 1955 544 
Q 2246 691 2419 944 
Q 2592 1197 2669 1533 
Q 2746 1869 2758 2240 
L 2720 2240 
Q 2579 2022 2313 1865 
Q 2048 1709 1632 1709 
Q 1043 1709 681 2070 
Q 320 2432 320 3091 
Q 320 3571 502 3916 
Q 685 4262 1011 4448 
Q 1338 4634 1779 4634 
Q 2214 4634 2566 4413 
Q 2918 4192 3123 3747 
Q 3328 3302 3328 2618 
z
M 1779 4160 
Q 1382 4160 1129 3897 
Q 877 3635 877 3098 
Q 877 2656 1091 2403 
Q 1306 2150 1754 2150 
Q 2061 2150 2285 2275 
Q 2509 2400 2633 2592 
Q 2758 2784 2758 2989 
Q 2758 3264 2649 3533 
Q 2541 3802 2323 3981 
Q 2106 4160 1779 4160 
z
" transform="scale(0.015625)"/>
      <path id="NotoSans-Regular-36" d="M 352 1952 
Q 352 2445 438 2921 
Q 525 3398 752 3785 
Q 979 4173 1388 4403 
Q 1798 4634 2445 4634 
Q 2579 4634 2742 4621 
Q 2906 4608 3008 4576 
L 3008 4096 
Q 2893 4134 2749 4153 
Q 2605 4173 2458 4173 
Q 2016 4173 1721 4025 
Q 1427 3878 1257 3622 
Q 1088 3366 1011 3033 
Q 934 2701 915 2323 
L 954 2323 
Q 1101 2547 1363 2704 
Q 1626 2861 2035 2861 
Q 2630 2861 2995 2499 
Q 3360 2138 3360 1472 
Q 3360 755 2966 345 
Q 2573 -64 1907 -64 
Q 1472 -64 1120 153 
Q 768 371 560 819 
Q 352 1267 352 1952 
z
M 1901 410 
Q 2304 410 2553 669 
Q 2803 928 2803 1472 
Q 2803 1907 2582 2163 
Q 2362 2419 1920 2419 
Q 1619 2419 1395 2294 
Q 1171 2170 1046 1978 
Q 922 1786 922 1581 
Q 922 1306 1030 1034 
Q 1139 762 1356 586 
Q 1574 410 1901 410 
z
" transform="scale(0.015625)"/>
     </defs>
     <use xlink:href="#NotoSans-Regular-2022"/>
     <use xlink:href="#NotoSans-Regular-20" transform="translate(37.599991 0)"/>
     <use xlink:href="#NotoSans-Regular-62" transform="translate(63.599976 0)"/>
     <use xlink:href="#NotoSans-Regular-75" transform="translate(125.09996 0)"/>
     <use xlink:href="#NotoSans-Regular-64" transform="translate(186.899948 0)"/>
     <use xlink:href="#NotoSans-Regular-67" transform="translate(248.399933 0)"/>
     <use xlink:href="#NotoSans-Regular-65" transform="translate(309.899918 0)"/>
     <use xlink:href="#NotoSans-Regular-74" transform="translate(366.299911 0)"/>
     <use xlink:href="#NotoSans-Regular-20" transform="translate(402.399902 0)"/>
     <use xlink:href="#NotoSansCJKsc-Regular-2264" transform="translate(428.399887 0)"/>
     <use xlink:href="#NotoSans-Regular-20" transform="translate(528.399872 0)"/>
     <use xlink:href="#NotoSans-Regular-34" transform="translate(554.399857 0)"/>
     <use xlink:href="#NotoSans-Regular-30" transform="translate(611.599854 0)"/>
     <use xlink:href="#NotoSans-Regular-39" transform="translate(668.79985 0)"/>
     <use xlink:href="#NotoSans-Regular-36" transform="translate(725.999847 0)"/>
    </g>
   </g>
   <g id="text_18">
    <!--  denies toolcall -->
    <g style="fill: #7d6608" transform="translate(655.110625 568.8) scale(0.08 -0.08)">
     <defs>
      <path id="NotoSans-Regular-69" d="M 832 4717 
Q 960 4717 1059 4630 
Q 1158 4544 1158 4358 
Q 1158 4179 1059 4089 
Q 960 4000 832 4000 
Q 691 4000 595 4089 
Q 499 4179 499 4358 
Q 499 4544 595 4630 
Q 691 4717 832 4717 
z
M 1107 3430 
L 1107 0 
L 544 0 
L 544 3430 
L 1107 3430 
z
" transform="scale(0.015625)"/>
      <path id="NotoSans-Regular-73" d="M 2778 947 
Q 2778 448 2406 192 
Q 2035 -64 1408 -64 
Q 1050 -64 790 -6 
Q 531 51 333 154 
L 333 666 
Q 538 563 829 476 
Q 1120 390 1421 390 
Q 1850 390 2042 528 
Q 2234 666 2234 896 
Q 2234 1024 2163 1126 
Q 2093 1229 1910 1331 
Q 1728 1434 1389 1562 
Q 1056 1690 819 1818 
Q 582 1946 454 2125 
Q 326 2304 326 2586 
Q 326 3021 681 3257 
Q 1037 3494 1613 3494 
Q 1926 3494 2198 3433 
Q 2470 3373 2707 3264 
L 2515 2816 
Q 2298 2906 2061 2970 
Q 1824 3034 1574 3034 
Q 1229 3034 1046 2922 
Q 864 2810 864 2618 
Q 864 2477 947 2377 
Q 1030 2278 1225 2185 
Q 1421 2093 1747 1965 
Q 2074 1843 2304 1715 
Q 2534 1587 2656 1404 
Q 2778 1222 2778 947 
z
" transform="scale(0.015625)"/>
      <path id="NotoSans-Regular-6c" d="M 1107 0 
L 544 0 
L 544 4864 
L 1107 4864 
L 1107 0 
z
" transform="scale(0.015625)"/>
     </defs>
     <use xlink:href="#NotoSans-Regular-2022"/>
     <use xlink:href="#NotoSans-Regular-20" transform="translate(37.599991 0)"/>
     <use xlink:href="#NotoSans-Regular-64" transform="translate(63.599976 0)"/>
     <use xlink:href="#NotoSans-Regular-65" transform="translate(125.09996 0)"/>
     <use xlink:href="#NotoSans-Regular-6e" transform="translate(181.499954 0)"/>
     <use xlink:href="#NotoSans-Regular-69" transform="translate(243.299942 0)"/>
     <use xlink:href="#NotoSans-Regular-65" transform="translate(269.09993 0)"/>
     <use xlink:href="#NotoSans-Regular-73" transform="translate(325.499924 0)"/>
     <use xlink:href="#NotoSans-Regular-20" transform="translate(373.399918 0)"/>
     <use xlink:href="#NotoSans-Regular-74" transform="translate(399.399902 0)"/>
     <use xlink:href="#NotoSans-Regular-6f" transform="translate(435.499893 0)"/>
     <use xlink:href="#NotoSans-Regular-6f" transform="translate(495.999878 0)"/>
     <use xlink:href="#NotoSans-Regular-6c" transform="translate(556.499863 0)"/>
     <use xlink:href="#NotoSans-Regular-63" transform="translate(582.29985 0)"/>
     <use xlink:href="#NotoSans-Regular-61" transform="translate(630.299835 0)"/>
     <use xlink:href="#NotoSans-Regular-6c" transform="translate(686.399826 0)"/>
     <use xlink:href="#NotoSans-Regular-6c" transform="translate(712.199814 0)"/>
    </g>
   </g>
   <g id="text_19">
    <!-- PACKETS -->
    <g style="fill: #c0392b" transform="translate(983.850156 344.16) scale(0.11 -0.11)">
     <defs>
      <path id="NotoSans-Bold-4b" d="M 4250 0 
L 3149 0 
L 1952 1926 
L 1542 1632 
L 1542 0 
L 576 0 
L 576 4570 
L 1542 4570 
L 1542 2477 
Q 1638 2611 1734 2745 
Q 1830 2880 1926 3014 
L 3162 4570 
L 4237 4570 
L 2643 2547 
L 4250 0 
z
" transform="scale(0.015625)"/>
     </defs>
     <use xlink:href="#NotoSans-Bold-50"/>
     <use xlink:href="#NotoSans-Bold-41" transform="translate(62.799988 0)"/>
     <use xlink:href="#NotoSans-Bold-43" transform="translate(131.799973 0)"/>
     <use xlink:href="#NotoSans-Bold-4b" transform="translate(195.499969 0)"/>
     <use xlink:href="#NotoSans-Bold-45" transform="translate(261.899963 0)"/>
     <use xlink:href="#NotoSans-Bold-54" transform="translate(317.899948 0)"/>
     <use xlink:href="#NotoSans-Bold-53" transform="translate(375.799942 0)"/>
    </g>
   </g>
   <g id="text_20">
    <!-- Intent -->
    <g style="fill: #922b21" transform="translate(993.320156 416.7) scale(0.09 -0.09)">
     <use xlink:href="#NotoSans-Bold-49"/>
     <use xlink:href="#NotoSans-Bold-6e" transform="translate(38.899994 0)"/>
     <use xlink:href="#NotoSans-Bold-74" transform="translate(104.599991 0)"/>
     <use xlink:href="#NotoSans-Bold-65" transform="translate(147.999985 0)"/>
     <use xlink:href="#NotoSans-Bold-6e" transform="translate(207.099976 0)"/>
     <use xlink:href="#NotoSans-Bold-74" transform="translate(272.799973 0)"/>
    </g>
   </g>
   <g id="text_21">
    <!-- Evidence -->
    <g style="fill: #1e8449" transform="translate(987.66 522) scale(0.09 -0.09)">
     <defs>
      <path id="NotoSans-Bold-64" d="M 1606 -64 
Q 1024 -64 656 393 
Q 288 851 288 1741 
Q 288 2637 659 3097 
Q 1030 3558 1632 3558 
Q 2010 3558 2253 3411 
Q 2496 3264 2637 3046 
L 2669 3046 
Q 2650 3149 2624 3344 
Q 2598 3539 2598 3744 
L 2598 4864 
L 3552 4864 
L 3552 0 
L 2822 0 
L 2637 454 
L 2598 454 
Q 2458 237 2221 86 
Q 1984 -64 1606 -64 
z
M 1939 698 
Q 2336 698 2496 931 
Q 2656 1165 2662 1632 
L 2662 1734 
Q 2662 2246 2505 2515 
Q 2349 2784 1926 2784 
Q 1613 2784 1433 2512 
Q 1254 2240 1254 1728 
Q 1254 1216 1433 957 
Q 1613 698 1939 698 
z
" transform="scale(0.015625)"/>
     </defs>
     <use xlink:href="#NotoSans-Bold-45"/>
     <use xlink:href="#NotoSans-Bold-76" transform="translate(55.999985 0)"/>
     <use xlink:href="#NotoSans-Bold-69" transform="translate(112.899979 0)"/>
     <use xlink:href="#NotoSans-Bold-64" transform="translate(143.399963 0)"/>
     <use xlink:href="#NotoSans-Bold-65" transform="translate(206.699951 0)"/>
     <use xlink:href="#NotoSans-Bold-6e" transform="translate(265.799942 0)"/>
     <use xlink:href="#NotoSans-Bold-63" transform="translate(331.499939 0)"/>
     <use xlink:href="#NotoSans-Bold-65" transform="translate(382.899933 0)"/>
    </g>
   </g>
   <g id="text_22">
    <!-- Intent flow -->
    <g style="fill: #e74c3c" transform="translate(583.183809 323.132815) rotate(-10) scale(0.09 -0.09)">
     <defs>
      <path id="NotoSans-Italic-66" d="M -307 -1536 
Q -429 -1536 -531 -1517 
Q -634 -1498 -717 -1472 
L -717 -998 
Q -627 -1024 -544 -1046 
Q -461 -1069 -358 -1069 
Q -128 -1069 0 -880 
Q 128 -691 205 -339 
L 909 3002 
L 314 3002 
L 358 3238 
L 998 3450 
L 1069 3757 
Q 1171 4198 1321 4444 
Q 1472 4691 1696 4793 
Q 1920 4896 2234 4896 
Q 2394 4896 2563 4861 
Q 2733 4826 2835 4774 
L 2688 4346 
Q 2598 4378 2492 4406 
Q 2387 4435 2259 4435 
Q 2010 4435 1866 4294 
Q 1722 4154 1632 3757 
L 1555 3430 
L 2291 3430 
L 2208 3002 
L 1472 3002 
L 755 -403 
Q 640 -934 397 -1235 
Q 154 -1536 -307 -1536 
z
" transform="scale(0.015625)"/>
      <path id="NotoSans-Italic-77" d="M 506 0 
L 365 3430 
L 915 3430 
L 966 1600 
Q 979 1248 966 963 
Q 954 678 941 493 
L 966 493 
Q 1018 627 1088 809 
Q 1158 992 1238 1174 
Q 1318 1357 1382 1491 
L 2285 3430 
L 2893 3430 
L 3002 1594 
Q 3008 1357 3014 1046 
Q 3021 736 3008 493 
L 3034 493 
Q 3117 736 3245 1065 
Q 3373 1395 3526 1747 
L 4275 3430 
L 4870 3430 
L 3283 0 
L 2605 0 
L 2509 1856 
Q 2496 2112 2499 2349 
Q 2502 2586 2502 2886 
L 2477 2886 
Q 2394 2650 2307 2448 
Q 2221 2246 2067 1920 
L 1171 0 
L 506 0 
z
" transform="scale(0.015625)"/>
     </defs>
     <use xlink:href="#NotoSans-Italic-49"/>
     <use xlink:href="#NotoSans-Italic-6e" transform="translate(32.399994 0)"/>
     <use xlink:href="#NotoSans-Italic-74" transform="translate(90.299988 0)"/>
     <use xlink:href="#NotoSans-Italic-65" transform="translate(123.499985 0)"/>
     <use xlink:href="#NotoSans-Italic-6e" transform="translate(173.399979 0)"/>
     <use xlink:href="#NotoSans-Italic-74" transform="translate(231.299973 0)"/>
     <use xlink:href="#NotoSans-Italic-20" transform="translate(264.499969 0)"/>
     <use xlink:href="#NotoSans-Italic-66" transform="translate(290.499954 0)"/>
     <use xlink:href="#NotoSans-Italic-6c" transform="translate(322.299942 0)"/>
     <use xlink:href="#NotoSans-Italic-6f" transform="translate(348.09993 0)"/>
     <use xlink:href="#NotoSans-Italic-77" transform="translate(404.399918 0)"/>
    </g>
   </g>
   <g id="text_23">
    <!-- Evidence flow -->
    <g style="fill: #27ae60" transform="translate(577.032203 629.702454) rotate(-350) scale(0.09 -0.09)">
     <defs>
      <path id="NotoSans-Italic-45" d="M 262 0 
L 1229 4570 
L 3546 4570 
L 3437 4064 
L 1690 4064 
L 1389 2637 
L 3021 2637 
L 2925 2138 
L 1286 2138 
L 934 506 
L 2688 506 
L 2579 0 
L 262 0 
z
" transform="scale(0.015625)"/>
     </defs>
     <use xlink:href="#NotoSans-Italic-45"/>
     <use xlink:href="#NotoSans-Italic-76" transform="translate(51.399994 0)"/>
     <use xlink:href="#NotoSans-Italic-69" transform="translate(98.099991 0)"/>
     <use xlink:href="#NotoSans-Italic-64" transform="translate(123.899979 0)"/>
     <use xlink:href="#NotoSans-Italic-65" transform="translate(181.799973 0)"/>
     <use xlink:href="#NotoSans-Italic-6e" transform="translate(231.699966 0)"/>
     <use xlink:href="#NotoSans-Italic-63" transform="translate(289.59996 0)"/>
     <use xlink:href="#NotoSans-Italic-65" transform="translate(334.899948 0)"/>
     <use xlink:href="#NotoSans-Italic-20" transform="translate(384.799942 0)"/>
     <use xlink:href="#NotoSans-Italic-66" transform="translate(410.799927 0)"/>
     <use xlink:href="#NotoSans-Italic-6c" transform="translate(442.599915 0)"/>
     <use xlink:href="#NotoSans-Italic-6f" transform="translate(468.399902 0)"/>
     <use xlink:href="#NotoSans-Italic-77" transform="translate(524.69989 0)"/>
    </g>
   </g>
   <g id="patch_19">
    <path d="M 601.89906 498.6 
Q 586.349532 498.6 573.036072 498.6 
" style="fill: none; stroke-dasharray: 7.4,3.2; stroke-dashoffset: 0; stroke: #d4ac0d; stroke-width: 2; stroke-linecap: round"/>
    <path d="M 577.036072 500.6 
L 573.036072 498.6 
L 577.036072 496.6 
" style="fill: none; stroke-dasharray: 7.4,3.2; stroke-dashoffset: 0; stroke: #d4ac0d; stroke-width: 2; stroke-linecap: round"/>
   </g>
   <g id="text_24">
    <!-- filters -->
    <g style="fill: #d4ac0d" transform="translate(576.37 477.54) scale(0.08 -0.08)">
     <use xlink:href="#NotoSans-Italic-66"/>
     <use xlink:href="#NotoSans-Italic-69" transform="translate(31.799988 0)"/>
     <use xlink:href="#NotoSans-Italic-6c" transform="translate(57.599976 0)"/>
     <use xlink:href="#NotoSans-Italic-74" transform="translate(83.399963 0)"/>
     <use xlink:href="#NotoSans-Italic-65" transform="translate(116.59996 0)"/>
     <use xlink:href="#NotoSans-Italic-72" transform="translate(166.499954 0)"/>
     <use xlink:href="#NotoSans-Italic-73" transform="translate(206.299942 0)"/>
    </g>
   </g>
   <g id="text_25">
    <!--  -->
    <g style="fill: #e74c3c" transform="translate(71.4 817.62) scale(0.12 -0.12)">
     <defs>
      <path id="NotoSansCJKsc-Bold-25cf" d="M 320 2432 
C 320 838 1606 -448 3200 -448 
C 4794 -448 6080 838 6080 2432 
C 6080 4026 4794 5312 3200 5312 
C 1606 5312 320 4026 320 2432 
z
" transform="scale(0.015625)"/>
     </defs>
     <use xlink:href="#NotoSansCJKsc-Bold-25cf"/>
    </g>
   </g>
   <g id="text_26">
    <!-- Inner: denies toolcall -->
    <g style="fill: #2c3e50" transform="translate(98.46 816.84) scale(0.09 -0.09)">
     <defs>
      <path id="NotoSans-Regular-49" d="M 1907 0 
L 256 0 
L 256 333 
L 794 454 
L 794 4109 
L 256 4237 
L 256 4570 
L 1907 4570 
L 1907 4237 
L 1370 4109 
L 1370 454 
L 1907 333 
L 1907 0 
z
" transform="scale(0.015625)"/>
      <path id="NotoSans-Regular-3a" d="M 461 3085 
Q 461 3328 576 3424 
Q 691 3520 851 3520 
Q 1018 3520 1136 3424 
Q 1254 3328 1254 3085 
Q 1254 2854 1136 2752 
Q 1018 2650 851 2650 
Q 691 2650 576 2752 
Q 461 2854 461 3085 
z
M 461 346 
Q 461 582 576 678 
Q 691 774 851 774 
Q 1018 774 1136 678 
Q 1254 582 1254 346 
Q 1254 115 1136 12 
Q 1018 -90 851 -90 
Q 691 -90 576 12 
Q 461 115 461 346 
z
" transform="scale(0.015625)"/>
     </defs>
     <use xlink:href="#NotoSans-Regular-49"/>
     <use xlink:href="#NotoSans-Regular-6e" transform="translate(33.899994 0)"/>
     <use xlink:href="#NotoSans-Regular-6e" transform="translate(95.699982 0)"/>
     <use xlink:href="#NotoSans-Regular-65" transform="translate(157.499969 0)"/>
     <use xlink:href="#NotoSans-Regular-72" transform="translate(213.899963 0)"/>
     <use xlink:href="#NotoSans-Regular-3a" transform="translate(255.199951 0)"/>
     <use xlink:href="#NotoSans-Regular-20" transform="translate(281.999939 0)"/>
     <use xlink:href="#NotoSans-Regular-64" transform="translate(307.999924 0)"/>
     <use xlink:href="#NotoSans-Regular-65" transform="translate(369.499908 0)"/>
     <use xlink:href="#NotoSans-Regular-6e" transform="translate(425.899902 0)"/>
     <use xlink:href="#NotoSans-Regular-69" transform="translate(487.69989 0)"/>
     <use xlink:href="#NotoSans-Regular-65" transform="translate(513.499878 0)"/>
     <use xlink:href="#NotoSans-Regular-73" transform="translate(569.899872 0)"/>
     <use xlink:href="#NotoSans-Regular-20" transform="translate(617.799866 0)"/>
     <use xlink:href="#NotoSans-Regular-74" transform="translate(643.79985 0)"/>
     <use xlink:href="#NotoSans-Regular-6f" transform="translate(679.899841 0)"/>
     <use xlink:href="#NotoSans-Regular-6f" transform="translate(740.399826 0)"/>
     <use xlink:href="#NotoSans-Regular-6c" transform="translate(800.899811 0)"/>
     <use xlink:href="#NotoSans-Regular-63" transform="translate(826.699799 0)"/>
     <use xlink:href="#NotoSans-Regular-61" transform="translate(874.699783 0)"/>
     <use xlink:href="#NotoSans-Regular-6c" transform="translate(930.799774 0)"/>
     <use xlink:href="#NotoSans-Regular-6c" transform="translate(956.599762 0)"/>
    </g>
   </g>
   <g id="text_27">
    <!--  -->
    <g style="fill: #f39c12" transform="translate(246.9 817.62) scale(0.12 -0.12)">
     <use xlink:href="#NotoSansCJKsc-Bold-25cf"/>
    </g>
   </g>
   <g id="text_28">
    <!-- Trans: conditional allow -->
    <g style="fill: #2c3e50" transform="translate(273.96 816.84) scale(0.09 -0.09)">
     <defs>
      <path id="NotoSans-Regular-54" d="M 2067 0 
L 1491 0 
L 1491 4064 
L 64 4064 
L 64 4570 
L 3488 4570 
L 3488 4064 
L 2067 4064 
L 2067 0 
z
" transform="scale(0.015625)"/>
      <path id="NotoSans-Regular-77" d="M 2758 1939 
Q 2675 2202 2614 2454 
Q 2554 2707 2522 2848 
L 2496 2848 
Q 2470 2707 2412 2454 
Q 2355 2202 2266 1933 
L 1651 6 
L 1011 6 
L 70 3437 
L 653 3437 
L 1126 1606 
Q 1197 1331 1261 1049 
Q 1325 768 1350 582 
L 1376 582 
Q 1402 691 1437 851 
Q 1472 1011 1517 1187 
Q 1562 1363 1606 1504 
L 2214 3437 
L 2829 3437 
L 3418 1504 
Q 3488 1286 3555 1030 
Q 3622 774 3648 589 
L 3674 589 
Q 3693 749 3760 1030 
Q 3827 1312 3904 1606 
L 4384 3437 
L 4960 3437 
L 4006 6 
L 3347 6 
L 2758 1939 
z
" transform="scale(0.015625)"/>
     </defs>
     <use xlink:href="#NotoSans-Regular-54"/>
     <use xlink:href="#NotoSans-Regular-72" transform="translate(55.599991 0)"/>
     <use xlink:href="#NotoSans-Regular-61" transform="translate(96.899979 0)"/>
     <use xlink:href="#NotoSans-Regular-6e" transform="translate(152.999969 0)"/>
     <use xlink:href="#NotoSans-Regular-73" transform="translate(214.799957 0)"/>
     <use xlink:href="#NotoSans-Regular-3a" transform="translate(262.699951 0)"/>
     <use xlink:href="#NotoSans-Regular-20" transform="translate(289.499939 0)"/>
     <use xlink:href="#NotoSans-Regular-63" transform="translate(315.499924 0)"/>
     <use xlink:href="#NotoSans-Regular-6f" transform="translate(363.499908 0)"/>
     <use xlink:href="#NotoSans-Regular-6e" transform="translate(423.999893 0)"/>
     <use xlink:href="#NotoSans-Regular-64" transform="translate(485.799881 0)"/>
     <use xlink:href="#NotoSans-Regular-69" transform="translate(547.299866 0)"/>
     <use xlink:href="#NotoSans-Regular-74" transform="translate(573.099854 0)"/>
     <use xlink:href="#NotoSans-Regular-69" transform="translate(609.199844 0)"/>
     <use xlink:href="#NotoSans-Regular-6f" transform="translate(634.999832 0)"/>
     <use xlink:href="#NotoSans-Regular-6e" transform="translate(695.499817 0)"/>
     <use xlink:href="#NotoSans-Regular-61" transform="translate(757.299805 0)"/>
     <use xlink:href="#NotoSans-Regular-6c" transform="translate(813.399796 0)"/>
     <use xlink:href="#NotoSans-Regular-20" transform="translate(839.199783 0)"/>
     <use xlink:href="#NotoSans-Regular-61" transform="translate(865.199768 0)"/>
     <use xlink:href="#NotoSans-Regular-6c" transform="translate(921.299759 0)"/>
     <use xlink:href="#NotoSans-Regular-6c" transform="translate(947.099747 0)"/>
     <use xlink:href="#NotoSans-Regular-6f" transform="translate(972.899734 0)"/>
     <use xlink:href="#NotoSans-Regular-77" transform="translate(1033.399719 0)"/>
    </g>
   </g>
   <g id="text_29">
    <!--  -->
    <g style="fill: #2980b9" transform="translate(422.4 817.62) scale(0.12 -0.12)">
     <use xlink:href="#NotoSansCJKsc-Bold-25cf"/>
    </g>
   </g>
   <g id="text_30">
    <!-- Outer: external interface -->
    <g style="fill: #2c3e50" transform="translate(449.46 816.84) scale(0.09 -0.09)">
     <defs>
      <path id="NotoSans-Regular-4f" d="M 4608 2291 
Q 4608 1581 4368 1053 
Q 4128 525 3661 230 
Q 3194 -64 2502 -64 
Q 1792 -64 1321 230 
Q 851 525 620 1056 
Q 390 1587 390 2298 
Q 390 3002 620 3526 
Q 851 4051 1321 4345 
Q 1792 4640 2509 4640 
Q 3194 4640 3661 4349 
Q 4128 4058 4368 3530 
Q 4608 3002 4608 2291 
z
M 998 2291 
Q 998 1427 1363 931 
Q 1728 435 2502 435 
Q 3283 435 3641 931 
Q 4000 1427 4000 2291 
Q 4000 3155 3641 3644 
Q 3283 4134 2509 4134 
Q 1734 4134 1366 3644 
Q 998 3155 998 2291 
z
" transform="scale(0.015625)"/>
      <path id="NotoSans-Regular-78" d="M 1357 1754 
L 173 3430 
L 813 3430 
L 1696 2138 
L 2573 3430 
L 3206 3430 
L 2022 1754 
L 3270 0 
L 2630 0 
L 1696 1370 
L 749 0 
L 115 0 
L 1357 1754 
z
" transform="scale(0.015625)"/>
     </defs>
     <use xlink:href="#NotoSans-Regular-4f"/>
     <use xlink:href="#NotoSans-Regular-75" transform="translate(78.099991 0)"/>
     <use xlink:href="#NotoSans-Regular-74" transform="translate(139.899979 0)"/>
     <use xlink:href="#NotoSans-Regular-65" transform="translate(175.999969 0)"/>
     <use xlink:href="#NotoSans-Regular-72" transform="translate(232.399963 0)"/>
     <use xlink:href="#NotoSans-Regular-3a" transform="translate(273.699951 0)"/>
     <use xlink:href="#NotoSans-Regular-20" transform="translate(300.499939 0)"/>
     <use xlink:href="#NotoSans-Regular-65" transform="translate(326.499924 0)"/>
     <use xlink:href="#NotoSans-Regular-78" transform="translate(382.899918 0)"/>
     <use xlink:href="#NotoSans-Regular-74" transform="translate(435.799911 0)"/>
     <use xlink:href="#NotoSans-Regular-65" transform="translate(471.899902 0)"/>
     <use xlink:href="#NotoSans-Regular-72" transform="translate(528.299896 0)"/>
     <use xlink:href="#NotoSans-Regular-6e" transform="translate(569.599884 0)"/>
     <use xlink:href="#NotoSans-Regular-61" transform="translate(631.399872 0)"/>
     <use xlink:href="#NotoSans-Regular-6c" transform="translate(687.499863 0)"/>
     <use xlink:href="#NotoSans-Regular-20" transform="translate(713.29985 0)"/>
     <use xlink:href="#NotoSans-Regular-69" transform="translate(739.299835 0)"/>
     <use xlink:href="#NotoSans-Regular-6e" transform="translate(765.099823 0)"/>
     <use xlink:href="#NotoSans-Regular-74" transform="translate(826.899811 0)"/>
     <use xlink:href="#NotoSans-Regular-65" transform="translate(862.999802 0)"/>
     <use xlink:href="#NotoSans-Regular-72" transform="translate(919.399796 0)"/>
     <use xlink:href="#NotoSans-Regular-66" transform="translate(960.699783 0)"/>
     <use xlink:href="#NotoSans-Regular-61" transform="translate(995.099777 0)"/>
     <use xlink:href="#NotoSans-Regular-63" transform="translate(1051.199768 0)"/>
     <use xlink:href="#NotoSans-Regular-65" transform="translate(1099.199753 0)"/>
    </g>
   </g>
   <g id="text_31">
    <!--  -->
    <g style="fill: #27ae60" transform="translate(597.9 817.62) scale(0.12 -0.12)">
     <use xlink:href="#NotoSansCJKsc-Bold-25cf"/>
    </g>
   </g>
   <g id="text_32">
    <!-- Isolate: actor/process -->
    <g style="fill: #2c3e50" transform="translate(624.96 816.84) scale(0.09 -0.09)">
     <defs>
      <path id="NotoSans-Regular-2f" d="M 2317 4570 
L 614 0 
L 64 0 
L 1766 4570 
L 2317 4570 
z
" transform="scale(0.015625)"/>
     </defs>
     <use xlink:href="#NotoSans-Regular-49"/>
     <use xlink:href="#NotoSans-Regular-73" transform="translate(33.899994 0)"/>
     <use xlink:href="#NotoSans-Regular-6f" transform="translate(81.799988 0)"/>
     <use xlink:href="#NotoSans-Regular-6c" transform="translate(142.299973 0)"/>
     <use xlink:href="#NotoSans-Regular-61" transform="translate(168.09996 0)"/>
     <use xlink:href="#NotoSans-Regular-74" transform="translate(224.199951 0)"/>
     <use xlink:href="#NotoSans-Regular-65" transform="translate(260.299942 0)"/>
     <use xlink:href="#NotoSans-Regular-3a" transform="translate(316.699936 0)"/>
     <use xlink:href="#NotoSans-Regular-20" transform="translate(343.499924 0)"/>
     <use xlink:href="#NotoSans-Regular-61" transform="translate(369.499908 0)"/>
     <use xlink:href="#NotoSans-Regular-63" transform="translate(425.599899 0)"/>
     <use xlink:href="#NotoSans-Regular-74" transform="translate(473.599884 0)"/>
     <use xlink:href="#NotoSans-Regular-6f" transform="translate(509.699875 0)"/>
     <use xlink:href="#NotoSans-Regular-72" transform="translate(570.19986 0)"/>
     <use xlink:href="#NotoSans-Regular-2f" transform="translate(611.499847 0)"/>
     <use xlink:href="#NotoSans-Regular-70" transform="translate(648.699844 0)"/>
     <use xlink:href="#NotoSans-Regular-72" transform="translate(710.199829 0)"/>
     <use xlink:href="#NotoSans-Regular-6f" transform="translate(751.499817 0)"/>
     <use xlink:href="#NotoSans-Regular-63" transform="translate(811.999802 0)"/>
     <use xlink:href="#NotoSans-Regular-65" transform="translate(859.999786 0)"/>
     <use xlink:href="#NotoSans-Regular-73" transform="translate(916.39978 0)"/>
     <use xlink:href="#NotoSans-Regular-73" transform="translate(964.299774 0)"/>
    </g>
   </g>
   <g id="text_33">
    <!--  -->
    <g style="fill: #c0392b" transform="translate(774.16125 817.62) scale(0.12 -0.12)">
     <defs>
      <path id="DejaVuSans-Bold-2b21" d="M 825 966 
L 2794 -169 
L 4763 966 
L 4763 3241 
L 2794 4375 
L 825 3241 
L 825 966 
z
M 469 759 
L 469 3447 
L 2794 4788 
L 5119 3447 
L 5119 759 
L 2794 -581 
L 469 759 
z
" transform="scale(0.015625)"/>
     </defs>
     <use xlink:href="#DejaVuSans-Bold-2b21"/>
    </g>
   </g>
   <g id="text_34">
    <!-- Packets: Intent/Evidence -->
    <g style="fill: #2c3e50" transform="translate(800.46 816.84) scale(0.09 -0.09)">
     <defs>
      <path id="NotoSans-Regular-50" d="M 1830 4570 
Q 2726 4570 3136 4218 
Q 3546 3866 3546 3226 
Q 3546 2848 3376 2518 
Q 3206 2189 2806 1984 
Q 2406 1779 1722 1779 
L 1197 1779 
L 1197 0 
L 621 0 
L 621 4570 
L 1830 4570 
z
M 1779 4077 
L 1197 4077 
L 1197 2272 
L 1658 2272 
Q 2310 2272 2630 2483 
Q 2950 2694 2950 3200 
Q 2950 3642 2668 3859 
Q 2387 4077 1779 4077 
z
" transform="scale(0.015625)"/>
      <path id="NotoSans-Regular-6b" d="M 1101 2323 
Q 1101 2221 1091 2054 
Q 1082 1888 1075 1766 
L 1101 1766 
Q 1139 1818 1216 1914 
Q 1293 2010 1373 2109 
Q 1453 2208 1510 2272 
L 2605 3430 
L 3264 3430 
L 1875 1965 
L 3360 0 
L 2682 0 
L 1491 1600 
L 1101 1261 
L 1101 0 
L 544 0 
L 544 4864 
L 1101 4864 
L 1101 2323 
z
" transform="scale(0.015625)"/>
     </defs>
     <use xlink:href="#NotoSans-Regular-50"/>
     <use xlink:href="#NotoSans-Regular-61" transform="translate(60.499985 0)"/>
     <use xlink:href="#NotoSans-Regular-63" transform="translate(116.599976 0)"/>
     <use xlink:href="#NotoSans-Regular-6b" transform="translate(164.59996 0)"/>
     <use xlink:href="#NotoSans-Regular-65" transform="translate(217.999954 0)"/>
     <use xlink:href="#NotoSans-Regular-74" transform="translate(274.399948 0)"/>
     <use xlink:href="#NotoSans-Regular-73" transform="translate(310.499939 0)"/>
     <use xlink:href="#NotoSans-Regular-3a" transform="translate(358.399933 0)"/>
     <use xlink:href="#NotoSans-Regular-20" transform="translate(385.199921 0)"/>
     <use xlink:href="#NotoSans-Regular-49" transform="translate(411.199905 0)"/>
     <use xlink:href="#NotoSans-Regular-6e" transform="translate(445.099899 0)"/>
     <use xlink:href="#NotoSans-Regular-74" transform="translate(506.899887 0)"/>
     <use xlink:href="#NotoSans-Regular-65" transform="translate(542.999878 0)"/>
     <use xlink:href="#NotoSans-Regular-6e" transform="translate(599.399872 0)"/>
     <use xlink:href="#NotoSans-Regular-74" transform="translate(661.19986 0)"/>
     <use xlink:href="#NotoSans-Regular-2f" transform="translate(697.29985 0)"/>
     <use xlink:href="#NotoSans-Regular-45" transform="translate(734.499847 0)"/>
     <use xlink:href="#NotoSans-Regular-76" transform="translate(790.099838 0)"/>
     <use xlink:href="#NotoSans-Regular-69" transform="translate(840.899826 0)"/>
     <use xlink:href="#NotoSans-Regular-64" transform="translate(866.699814 0)"/>
     <use xlink:href="#NotoSans-Regular-65" transform="translate(928.199799 0)"/>
     <use xlink:href="#NotoSans-Regular-6e" transform="translate(984.599792 0)"/>
     <use xlink:href="#NotoSans-Regular-63" transform="translate(1046.39978 0)"/>
     <use xlink:href="#NotoSans-Regular-65" transform="translate(1094.399765 0)"/>
    </g>
   </g>
   <g id="text_35">
    <!--  -->
    <g style="fill: #3498db" transform="translate(948.9 817.62) scale(0.12 -0.12)">
     <defs>
      <path id="NotoSansCJKsc-Bold-25cb" d="M 320 2432 
C 320 838 1606 -448 3200 -448 
C 4794 -448 6080 838 6080 2432 
C 6080 4026 4794 5312 3200 5312 
C 1606 5312 320 4026 320 2432 
z
M 3200 -166 
C 1766 -166 602 998 602 2432 
C 602 3866 1766 5030 3200 5030 
C 4634 5030 5798 3866 5798 2432 
C 5798 998 4634 -166 3200 -166 
z
" transform="scale(0.015625)"/>
     </defs>
     <use xlink:href="#NotoSansCJKsc-Bold-25cb"/>
    </g>
   </g>
   <g id="text_36">
    <!-- Ports: in/out/ctl/stat -->
    <g style="fill: #2c3e50" transform="translate(975.96 816.84) scale(0.09 -0.09)">
     <use xlink:href="#NotoSans-Regular-50"/>
     <use xlink:href="#NotoSans-Regular-6f" transform="translate(60.499985 0)"/>
     <use xlink:href="#NotoSans-Regular-72" transform="translate(120.999969 0)"/>
     <use xlink:href="#NotoSans-Regular-74" transform="translate(162.299957 0)"/>
     <use xlink:href="#NotoSans-Regular-73" transform="translate(198.399948 0)"/>
     <use xlink:href="#NotoSans-Regular-3a" transform="translate(246.299942 0)"/>
     <use xlink:href="#NotoSans-Regular-20" transform="translate(273.09993 0)"/>
     <use xlink:href="#NotoSans-Regular-69" transform="translate(299.099915 0)"/>
     <use xlink:href="#NotoSans-Regular-6e" transform="translate(324.899902 0)"/>
     <use xlink:href="#NotoSans-Regular-2f" transform="translate(386.69989 0)"/>
     <use xlink:href="#NotoSans-Regular-6f" transform="translate(423.899887 0)"/>
     <use xlink:href="#NotoSans-Regular-75" transform="translate(484.399872 0)"/>
     <use xlink:href="#NotoSans-Regular-74" transform="translate(546.19986 0)"/>
     <use xlink:href="#NotoSans-Regular-2f" transform="translate(582.29985 0)"/>
     <use xlink:href="#NotoSans-Regular-63" transform="translate(619.499847 0)"/>
     <use xlink:href="#NotoSans-Regular-74" transform="translate(667.499832 0)"/>
     <use xlink:href="#NotoSans-Regular-6c" transform="translate(703.599823 0)"/>
     <use xlink:href="#NotoSans-Regular-2f" transform="translate(729.399811 0)"/>
     <use xlink:href="#NotoSans-Regular-73" transform="translate(766.599808 0)"/>
     <use xlink:href="#NotoSans-Regular-74" transform="translate(814.499802 0)"/>
     <use xlink:href="#NotoSans-Regular-61" transform="translate(850.599792 0)"/>
     <use xlink:href="#NotoSans-Regular-74" transform="translate(906.699783 0)"/>
    </g>
   </g>
  </g>
 </g>
 <defs>
  <clipPath id="pbaeccbce1a">
   <rect x="7.2" y="7.2" width="1123.2" height="842.4"/>
  </clipPath>
 </defs>
</svg>
